<?xml version="1.0" encoding="UTF-8"?>
<svg xmlns="http://www.w3.org/2000/svg" width="4780" height="1400" viewBox="0 0 4780 1400">
<rect x="0" y="0" width="4780" height="1400" fill="#ffffff"/><text x="2390" y="34" text-anchor="middle" font-family="Arial, Helvetica, sans-serif" font-size="19" font-weight="bold" fill="#0f172a">BPMN 2.0 (AS-IS) – QUY TRÌNH QUẢN LÝ KHO DƯỢC TRUNG TÂM (FPT LONG CHÂU - TRỌNG ĐIỂM SỐ 2)</text><text x="2390" y="53" text-anchor="middle" font-family="Arial, Helvetica, sans-serif" font-size="11.5" font-style="italic" fill="#475569">Mô hình hóa chuẩn 8 Cổng điều kiện (Gateways &gt; 7) • Kiểm soát FEFO • Phân luồng Nhập (Inbound) - Xuất (Outbound) - Kiểm kê (Cycle Count)</text><defs>
  <marker id="arr_seq" markerWidth="8" markerHeight="6" refX="7" refY="3" orient="auto">
    <path d="M0,0 L8,3 L0,6 Z" fill="#1e3a8a"/>
  </marker>
  <marker id="arr_msg" markerWidth="9" markerHeight="7" refX="8" refY="3.5" orient="auto">
    <path d="M1,1 L8,3.5 L1,6" fill="none" stroke="#475569" stroke-width="1.6"/>
  </marker>
  <marker id="circle_msg" markerWidth="6" markerHeight="6" refX="3" refY="3" orient="auto">
    <circle cx="3" cy="3" r="2.5" fill="#ffffff" stroke="#475569" stroke-width="1.3"/>
  </marker>
</defs><rect x="15" y="65" width="4750" height="120" fill="#ffffff" stroke="#7e22ce" stroke-width="2.2"/><rect x="15" y="65" width="42" height="120" fill="#7e22ce"/><text x="36" y="125" text-anchor="middle" font-family="Arial, Helvetica, sans-serif" font-size="12.0" font-weight="bold" fill="#ffffff" transform="rotate(-90 36 125)">NHÀ CUNG CẤP</text><rect x="57" y="65" width="4708" height="120" fill="#faf5ff" stroke="#cbd5e1" stroke-width="1"/><rect x="57" y="65" width="153" height="120" fill="#f8fafc" stroke="#cbd5e1" stroke-width="1"/><text x="133" y="121.755" text-anchor="middle" font-family="Arial, Helvetica, sans-serif" font-size="10.5" font-weight="bold" fill="#334155">NHÀ CUNG CẤP</text><text x="133" y="136.245" text-anchor="middle" font-family="Arial, Helvetica, sans-serif" font-size="10.5" font-weight="bold" fill="#334155">DƯỢC PHẨM GSP</text><rect x="15" y="205" width="4750" height="960" fill="#ffffff" stroke="#1e3a8a" stroke-width="2.2"/><rect x="15" y="205" width="42" height="960" fill="#1e3a8a"/><text x="36" y="685" text-anchor="middle" font-family="Arial, Helvetica, sans-serif" font-size="12.0" font-weight="bold" fill="#ffffff" transform="rotate(-90 36 685)">KHO DƯỢC TRUNG TÂM FPT LONG CHÂU (CHUẨN GSP)</text><rect x="57" y="205" width="4708" height="220" fill="#f8fafc" stroke="#cbd5e1" stroke-width="1"/><rect x="57" y="205" width="153" height="220" fill="#f8fafc" stroke="#cbd5e1" stroke-width="1"/><text x="133" y="311.755" text-anchor="middle" font-family="Arial, Helvetica, sans-serif" font-size="10.5" font-weight="bold" fill="#334155">BỘ PHẬN TIẾP NHẬN</text><text x="133" y="326.245" text-anchor="middle" font-family="Arial, Helvetica, sans-serif" font-size="10.5" font-weight="bold" fill="#334155">&amp; NHẬP KHO (INBOUND)</text><rect x="57" y="425" width="4708" height="240" fill="#fffbeb" stroke="#cbd5e1" stroke-width="1"/><rect x="57" y="425" width="153" height="240" fill="#f8fafc" stroke="#cbd5e1" stroke-width="1"/><text x="133" y="541.755" text-anchor="middle" font-family="Arial, Helvetica, sans-serif" font-size="10.5" font-weight="bold" fill="#334155">DƯỢC SĨ KHO GSP</text><text x="133" y="556.245" text-anchor="middle" font-family="Arial, Helvetica, sans-serif" font-size="10.5" font-weight="bold" fill="#334155">&amp; BẢO QUẢN BIỆT TRỮ</text><rect x="57" y="665" width="4708" height="250" fill="#f0fdf4" stroke="#cbd5e1" stroke-width="1"/><rect x="57" y="665" width="153" height="250" fill="#f8fafc" stroke="#cbd5e1" stroke-width="1"/><text x="133" y="786.9736263736264" text-anchor="middle" font-family="Arial, Helvetica, sans-serif" font-size="10.2" font-weight="bold" fill="#334155">BỘ PHẬN SOẠN HÀNG</text><text x="133" y="801.0263736263736" text-anchor="middle" font-family="Arial, Helvetica, sans-serif" font-size="10.2" font-weight="bold" fill="#334155">&amp; XUẤT KHO (OUTBOUND)</text><rect x="57" y="915" width="4708" height="250" fill="#fdf2f8" stroke="#cbd5e1" stroke-width="1"/><rect x="57" y="915" width="153" height="250" fill="#f8fafc" stroke="#cbd5e1" stroke-width="1"/><text x="133" y="1037.5846153846153" text-anchor="middle" font-family="Arial, Helvetica, sans-serif" font-size="9.3" font-weight="bold" fill="#334155">TRƯỞNG KHO KIỂM KÊ</text><text x="133" y="1050.4153846153847" text-anchor="middle" font-family="Arial, Helvetica, sans-serif" font-size="9.3" font-weight="bold" fill="#334155">&amp; ĐỐI CHIẾU SỐ LIỆU ERP</text><rect x="15" y="1185" width="4750" height="120" fill="#ffffff" stroke="#059669" stroke-width="2.2"/><rect x="15" y="1185" width="42" height="120" fill="#059669"/><text x="36" y="1245" text-anchor="middle" font-family="Arial, Helvetica, sans-serif" font-size="12.0" font-weight="bold" fill="#ffffff" transform="rotate(-90 36 1245)">ĐỘI VẬN TẢI</text><rect x="57" y="1185" width="4708" height="120" fill="#f0fdf4" stroke="#cbd5e1" stroke-width="1"/><rect x="57" y="1185" width="153" height="120" fill="#f8fafc" stroke="#cbd5e1" stroke-width="1"/><text x="133" y="1241.9736263736263" text-anchor="middle" font-family="Arial, Helvetica, sans-serif" font-size="10.2" font-weight="bold" fill="#334155">ĐỘI XE VẬN TẢI</text><text x="133" y="1256.0263736263737" text-anchor="middle" font-family="Arial, Helvetica, sans-serif" font-size="10.2" font-weight="bold" fill="#334155">CHUYÊN DỤNG LOGISTICS</text><circle cx="280" cy="125" r="17" fill="#dcfce7" stroke="#16a34a" stroke-width="2.2"/><text x="280" y="153" text-anchor="middle" font-family="Arial, Helvetica, sans-serif" font-size="9" fill="#15803d" font-weight="bold">Xe hàng NCC đến</text><text x="280" y="165" text-anchor="middle" font-family="Arial, Helvetica, sans-serif" font-size="9" fill="#15803d" font-weight="bold">trạm giao nhận</text><rect x="365" y="101" width="150" height="48" rx="6" fill="#f3e8ff" stroke="#9333ea" stroke-width="1.8"/><text x="440" y="123.0" text-anchor="middle" font-family="Arial, Helvetica, sans-serif" font-size="9.8" font-weight="bold" fill="#0f172a">Giao nộp bộ chứng từ</text><text x="440" y="136.0" text-anchor="middle" font-family="Arial, Helvetica, sans-serif" font-size="9.8" font-weight="bold" fill="#0f172a">hóa đơn giao nhận</text><rect x="395.4" y="85" width="89.2" height="12" rx="2" fill="#ffffff" fill-opacity="0.95"/><text x="440" y="94" text-anchor="middle" font-family="Arial, Helvetica, sans-serif" font-size="8.5" fill="#dc2626" font-style="italic" font-weight="bold">[Hóa đơn giấy]</text><path d="M 297 125 L 365 125" fill="none" stroke="#1e3a8a" stroke-width="1.8" marker-end="url(#arr_seq)"/><rect x="365" y="271" width="150" height="48" rx="6" fill="#f1f5f9" stroke="#475569" stroke-width="1.8"/><text x="440" y="293.0" text-anchor="middle" font-family="Arial, Helvetica, sans-serif" font-size="9.8" font-weight="bold" fill="#0f172a">Tiếp nhận chứng từ</text><text x="440" y="306.0" text-anchor="middle" font-family="Arial, Helvetica, sans-serif" font-size="9.8" font-weight="bold" fill="#0f172a">&amp; đối chiếu PO hệ thống</text><rect x="378.0" y="323" width="124.0" height="12" rx="2" fill="#ffffff" fill-opacity="0.95"/><text x="440" y="332" text-anchor="middle" font-family="Arial, Helvetica, sans-serif" font-size="8.5" fill="#dc2626" font-style="italic" font-weight="bold">[Đối chiếu thủ công]</text><path d="M 440 149 L 440 271" fill="none" stroke="#475569" stroke-width="1.7" stroke-dasharray="5,4" marker-start="url(#circle_msg)" marker-end="url(#arr_msg)"/><rect x="427.75" y="190" width="120.5" height="15" rx="3" fill="#ffffff" stroke="#cbd5e1" stroke-width="0.8"/><text x="488" y="201" text-anchor="middle" font-family="Arial, Helvetica, sans-serif" font-size="9.2" font-weight="bold" fill="#475569">Bàn giao chứng từ</text><path d="M 620 273 L 642 295 L 620 317 L 598 295 Z" fill="#fef9c3" stroke="#ca8a04" stroke-width="2"/><text x="620" y="300.5" text-anchor="middle" font-family="Arial, Helvetica, sans-serif" font-size="14" font-weight="bold" fill="#854d0e">✕</text><rect x="581" y="270" width="22" height="13" rx="3" fill="#ffffff" stroke="#ca8a04" stroke-width="0.8"/><text x="592" y="279.5" text-anchor="middle" font-family="Arial, Helvetica, sans-serif" font-size="9.5" font-weight="bold" fill="#b45309">G1</text><text x="620" y="233" text-anchor="middle" font-family="Arial, Helvetica, sans-serif" font-size="9.2" font-weight="bold" fill="#854d0e">Chứng từ PO</text><text x="620" y="245" text-anchor="middle" font-family="Arial, Helvetica, sans-serif" font-size="9.2" font-weight="bold" fill="#854d0e">trùng khớp?</text><path d="M 515 295 L 598 295" fill="none" stroke="#1e3a8a" stroke-width="1.8" marker-end="url(#arr_seq)"/><rect x="548" y="341" width="145" height="44" rx="6" fill="#fee2e2" stroke="#dc2626" stroke-width="1.8"/><text x="620" y="361.0" text-anchor="middle" font-family="Arial, Helvetica, sans-serif" font-size="9.8" font-weight="bold" fill="#0f172a">Từ chối tiếp nhận xe &amp;</text><text x="620" y="374.0" text-anchor="middle" font-family="Arial, Helvetica, sans-serif" font-size="9.8" font-weight="bold" fill="#0f172a">lập biên bản sai lệch</text><path d="M 620 317 L 620 341" fill="none" stroke="#1e3a8a" stroke-width="1.8" marker-end="url(#arr_seq)"/><rect x="627.25" y="317" width="55.5" height="15" rx="3" fill="#ffffff" stroke="#cbd5e1" stroke-width="0.8"/><text x="655" y="328" text-anchor="middle" font-family="Arial, Helvetica, sans-serif" font-size="9.2" font-weight="bold" fill="#1e293b">Lệch PO</text><circle cx="760" cy="363" r="17" fill="#fee2e2" stroke="#dc2626" stroke-width="3.5"/><text x="786" y="360.5" text-anchor="start" font-family="Arial, Helvetica, sans-serif" font-size="9" fill="#991b1b" font-weight="bold">Từ chối xe hàng</text><text x="786" y="372.5" text-anchor="start" font-family="Arial, Helvetica, sans-serif" font-size="9" fill="#991b1b" font-weight="bold">trả về NCC</text><path d="M 692 363 L 743 363" fill="none" stroke="#1e3a8a" stroke-width="1.8" marker-end="url(#arr_seq)"/><rect x="745" y="271" width="150" height="48" rx="6" fill="#f1f5f9" stroke="#475569" stroke-width="1.8"/><text x="820" y="293.0" text-anchor="middle" font-family="Arial, Helvetica, sans-serif" font-size="9.8" font-weight="bold" fill="#0f172a">Dỡ hàng vào buồng đệm</text><text x="820" y="306.0" text-anchor="middle" font-family="Arial, Helvetica, sans-serif" font-size="9.8" font-weight="bold" fill="#0f172a">&amp; kiểm cảm quan sơ bộ</text><rect x="763.8" y="323" width="112.39999999999999" height="12" rx="2" fill="#ffffff" fill-opacity="0.95"/><text x="820" y="332" text-anchor="middle" font-family="Arial, Helvetica, sans-serif" font-size="8.5" fill="#dc2626" font-style="italic" font-weight="bold">[Dỡ hàng thủ công]</text><path d="M 642 295 L 745 295" fill="none" stroke="#1e3a8a" stroke-width="1.8" marker-end="url(#arr_seq)"/><rect x="667.25" y="273" width="55.5" height="15" rx="3" fill="#ffffff" stroke="#cbd5e1" stroke-width="0.8"/><text x="695" y="284" text-anchor="middle" font-family="Arial, Helvetica, sans-serif" font-size="9.2" font-weight="bold" fill="#1e293b">Khớp PO</text><path d="M 1010 273 L 1032 295 L 1010 317 L 988 295 Z" fill="#fef9c3" stroke="#ca8a04" stroke-width="2"/><text x="1010" y="300.5" text-anchor="middle" font-family="Arial, Helvetica, sans-serif" font-size="14" font-weight="bold" fill="#854d0e">✕</text><rect x="971" y="270" width="22" height="13" rx="3" fill="#ffffff" stroke="#ca8a04" stroke-width="0.8"/><text x="982" y="279.5" text-anchor="middle" font-family="Arial, Helvetica, sans-serif" font-size="9.5" font-weight="bold" fill="#b45309">G2</text><text x="1010" y="233" text-anchor="middle" font-family="Arial, Helvetica, sans-serif" font-size="9.2" font-weight="bold" fill="#854d0e">Điều kiện</text><text x="1010" y="245" text-anchor="middle" font-family="Arial, Helvetica, sans-serif" font-size="9.2" font-weight="bold" fill="#854d0e">bảo quản?</text><path d="M 895 295 L 988 295" fill="none" stroke="#1e3a8a" stroke-width="1.8" marker-end="url(#arr_seq)"/><rect x="1148" y="473" width="145" height="44" rx="6" fill="#e0f2fe" stroke="#0284c7" stroke-width="1.8"/><text x="1220" y="493.0" text-anchor="middle" font-family="Arial, Helvetica, sans-serif" font-size="9.8" font-weight="bold" fill="#0f172a">Chuyển vào kho lạnh</text><text x="1220" y="506.0" text-anchor="middle" font-family="Arial, Helvetica, sans-serif" font-size="9.8" font-weight="bold" fill="#0f172a">chuyên dụng 2-8°C</text><path d="M 1010 317 L 1010 495 L 1148 495" fill="none" stroke="#1e3a8a" stroke-width="1.8" marker-end="url(#arr_seq)"/><rect x="1019.0" y="470" width="62.0" height="15" rx="3" fill="#ffffff" stroke="#cbd5e1" stroke-width="0.8"/><text x="1050" y="481" text-anchor="middle" font-family="Arial, Helvetica, sans-serif" font-size="9.2" font-weight="bold" fill="#1e293b">Kho lạnh</text><rect x="1148" y="573" width="145" height="44" rx="6" fill="#fef3c7" stroke="#d97706" stroke-width="1.8"/><text x="1220" y="593.0" text-anchor="middle" font-family="Arial, Helvetica, sans-serif" font-size="9.8" font-weight="bold" fill="#0f172a">Chuyển vào khu vực</text><text x="1220" y="606.0" text-anchor="middle" font-family="Arial, Helvetica, sans-serif" font-size="9.8" font-weight="bold" fill="#0f172a">pallet tiêu chuẩn GSP</text><path d="M 1032 295 L 1090 295 L 1090 595 L 1148 595" fill="none" stroke="#1e3a8a" stroke-width="1.8" marker-end="url(#arr_seq)"/><rect x="1030.25" y="273" width="55.5" height="15" rx="3" fill="#ffffff" stroke="#cbd5e1" stroke-width="0.8"/><text x="1058" y="284" text-anchor="middle" font-family="Arial, Helvetica, sans-serif" font-size="9.2" font-weight="bold" fill="#1e293b">Kho mát</text><path d="M 1450 523 L 1472 545 L 1450 567 L 1428 545 Z" fill="#fef9c3" stroke="#ca8a04" stroke-width="2"/><text x="1450" y="550.5" text-anchor="middle" font-family="Arial, Helvetica, sans-serif" font-size="14" font-weight="bold" fill="#854d0e">✕</text><rect x="1411" y="520" width="22" height="13" rx="3" fill="#ffffff" stroke="#ca8a04" stroke-width="0.8"/><text x="1422" y="529.5" text-anchor="middle" font-family="Arial, Helvetica, sans-serif" font-size="9.5" font-weight="bold" fill="#b45309">G3</text><text x="1450" y="483" text-anchor="middle" font-family="Arial, Helvetica, sans-serif" font-size="9.2" font-weight="bold" fill="#854d0e">Bao bì thùng thuốc</text><text x="1450" y="495" text-anchor="middle" font-family="Arial, Helvetica, sans-serif" font-size="9.2" font-weight="bold" fill="#854d0e">nguyên vẹn?</text><path d="M 1292 495 L 1360 495 L 1360 545" fill="none" stroke="#1e3a8a" stroke-width="1.8"/><path d="M 1292 595 L 1360 595 L 1360 545" fill="none" stroke="#1e3a8a" stroke-width="1.8"/><path d="M 1360 545 L 1428 545" fill="none" stroke="#1e3a8a" stroke-width="1.8" marker-end="url(#arr_seq)"/><rect x="1378" y="591" width="145" height="44" rx="6" fill="#fee2e2" stroke="#dc2626" stroke-width="1.8"/><text x="1450" y="611.0" text-anchor="middle" font-family="Arial, Helvetica, sans-serif" font-size="9.8" font-weight="bold" fill="#0f172a">Niêm phong cách ly &amp;</text><text x="1450" y="624.0" text-anchor="middle" font-family="Arial, Helvetica, sans-serif" font-size="9.8" font-weight="bold" fill="#0f172a">lập hồ sơ bồi thường</text><path d="M 1450 567 L 1450 591" fill="none" stroke="#1e3a8a" stroke-width="1.8" marker-end="url(#arr_seq)"/><rect x="1460.5" y="567" width="49.0" height="15" rx="3" fill="#ffffff" stroke="#cbd5e1" stroke-width="0.8"/><text x="1485" y="578" text-anchor="middle" font-family="Arial, Helvetica, sans-serif" font-size="9.2" font-weight="bold" fill="#1e293b">Móp vỡ</text><circle cx="1590" cy="613" r="17" fill="#fee2e2" stroke="#dc2626" stroke-width="3.5"/><text x="1590" y="641" text-anchor="middle" font-family="Arial, Helvetica, sans-serif" font-size="9" fill="#991b1b" font-weight="bold">Cách ly lô</text><text x="1590" y="653" text-anchor="middle" font-family="Arial, Helvetica, sans-serif" font-size="9" fill="#991b1b" font-weight="bold">hàng hư hỏng</text><path d="M 1522 613 L 1573 613" fill="none" stroke="#1e3a8a" stroke-width="1.8" marker-end="url(#arr_seq)"/><rect x="1615" y="521" width="150" height="48" rx="6" fill="#fffbeb" stroke="#d97706" stroke-width="1.8"/><text x="1690" y="543.0" text-anchor="middle" font-family="Arial, Helvetica, sans-serif" font-size="9.8" font-weight="bold" fill="#0f172a">Ghi thẻ kho giấy &amp;</text><text x="1690" y="556.0" text-anchor="middle" font-family="Arial, Helvetica, sans-serif" font-size="9.8" font-weight="bold" fill="#0f172a">xếp hàng lên giá kệ</text><rect x="1636.7" y="505" width="106.6" height="12" rx="2" fill="#ffffff" fill-opacity="0.95"/><text x="1690" y="514" text-anchor="middle" font-family="Arial, Helvetica, sans-serif" font-size="8.5" fill="#dc2626" font-style="italic" font-weight="bold">[Ghi thẻ kho tay]</text><path d="M 1472 545 L 1615 545" fill="none" stroke="#1e3a8a" stroke-width="1.8" marker-end="url(#arr_seq)"/><rect x="1505.75" y="523" width="68.5" height="15" rx="3" fill="#ffffff" stroke="#cbd5e1" stroke-width="0.8"/><text x="1540" y="534" text-anchor="middle" font-family="Arial, Helvetica, sans-serif" font-size="9.2" font-weight="bold" fill="#1e293b">Đạt chuẩn</text><rect x="1835" y="766" width="150" height="48" rx="6" fill="#ecfdf5" stroke="#059669" stroke-width="1.8"/><text x="1910" y="788.0" text-anchor="middle" font-family="Arial, Helvetica, sans-serif" font-size="9.8" font-weight="bold" fill="#0f172a">Tiếp nhận phiếu xuất</text><text x="1910" y="801.0" text-anchor="middle" font-family="Arial, Helvetica, sans-serif" font-size="9.8" font-weight="bold" fill="#0f172a">từ 1.800+ nhà thuốc</text><path d="M 1690 569 L 1690 790 L 1835 790" fill="none" stroke="#1e3a8a" stroke-width="1.8" marker-end="url(#arr_seq)"/><path d="M 2110 768 L 2132 790 L 2110 812 L 2088 790 Z" fill="#fef9c3" stroke="#ca8a04" stroke-width="2"/><text x="2110" y="795.5" text-anchor="middle" font-family="Arial, Helvetica, sans-serif" font-size="14" font-weight="bold" fill="#854d0e">✕</text><rect x="2071" y="765" width="22" height="13" rx="3" fill="#ffffff" stroke="#ca8a04" stroke-width="0.8"/><text x="2082" y="774.5" text-anchor="middle" font-family="Arial, Helvetica, sans-serif" font-size="9.5" font-weight="bold" fill="#b45309">G4</text><text x="2110" y="728" text-anchor="middle" font-family="Arial, Helvetica, sans-serif" font-size="9.2" font-weight="bold" fill="#854d0e">Tồn kho đáp ứng</text><text x="2110" y="740" text-anchor="middle" font-family="Arial, Helvetica, sans-serif" font-size="9.2" font-weight="bold" fill="#854d0e">đủ số lượng?</text><path d="M 1985 790 L 2088 790" fill="none" stroke="#1e3a8a" stroke-width="1.8" marker-end="url(#arr_seq)"/><rect x="2038" y="836" width="145" height="44" rx="6" fill="#fee2e2" stroke="#dc2626" stroke-width="1.8"/><text x="2110" y="856.0" text-anchor="middle" font-family="Arial, Helvetica, sans-serif" font-size="9.8" font-weight="bold" fill="#0f172a">Xuất phần có sẵn &amp;</text><text x="2110" y="869.0" text-anchor="middle" font-family="Arial, Helvetica, sans-serif" font-size="9.8" font-weight="bold" fill="#0f172a">phát lệnh PO bổ sung</text><path d="M 2110 812 L 2110 836" fill="none" stroke="#1e3a8a" stroke-width="1.8" marker-end="url(#arr_seq)"/><rect x="2113.75" y="812" width="68.5" height="15" rx="3" fill="#ffffff" stroke="#cbd5e1" stroke-width="0.8"/><text x="2148" y="823" text-anchor="middle" font-family="Arial, Helvetica, sans-serif" font-size="9.2" font-weight="bold" fill="#1e293b">Thiếu tồn</text><circle cx="2240" cy="858" r="17" fill="#fee2e2" stroke="#dc2626" stroke-width="3.5"/><text x="2240" y="886" text-anchor="middle" font-family="Arial, Helvetica, sans-serif" font-size="9" fill="#991b1b" font-weight="bold">Xuất thiếu</text><text x="2240" y="898" text-anchor="middle" font-family="Arial, Helvetica, sans-serif" font-size="9" fill="#991b1b" font-weight="bold">&amp; chờ NCC bù</text><path d="M 2182 858 L 2223 858" fill="none" stroke="#1e3a8a" stroke-width="1.8" marker-end="url(#arr_seq)"/><rect x="2285" y="766" width="150" height="48" rx="6" fill="#ecfdf5" stroke="#059669" stroke-width="1.8"/><text x="2360" y="788.0" text-anchor="middle" font-family="Arial, Helvetica, sans-serif" font-size="9.8" font-weight="bold" fill="#0f172a">Tra cứu vị trí &amp; hạn dùng</text><text x="2360" y="801.0" text-anchor="middle" font-family="Arial, Helvetica, sans-serif" font-size="9.8" font-weight="bold" fill="#0f172a">thuốc trên giá kệ</text><rect x="2298.0" y="750" width="124.0" height="12" rx="2" fill="#ffffff" fill-opacity="0.95"/><text x="2360" y="759" text-anchor="middle" font-family="Arial, Helvetica, sans-serif" font-size="8.5" fill="#dc2626" font-style="italic" font-weight="bold">[Tìm thuốc bằng tay]</text><path d="M 2132 790 L 2285 790" fill="none" stroke="#1e3a8a" stroke-width="1.8" marker-end="url(#arr_seq)"/><rect x="2172.25" y="768" width="55.5" height="15" rx="3" fill="#ffffff" stroke="#cbd5e1" stroke-width="0.8"/><text x="2200" y="779" text-anchor="middle" font-family="Arial, Helvetica, sans-serif" font-size="9.2" font-weight="bold" fill="#1e293b">Đủ hàng</text><path d="M 2580 768 L 2602 790 L 2580 812 L 2558 790 Z" fill="#fef9c3" stroke="#ca8a04" stroke-width="2"/><text x="2580" y="795.5" text-anchor="middle" font-family="Arial, Helvetica, sans-serif" font-size="14" font-weight="bold" fill="#854d0e">✕</text><rect x="2541" y="765" width="22" height="13" rx="3" fill="#ffffff" stroke="#ca8a04" stroke-width="0.8"/><text x="2552" y="774.5" text-anchor="middle" font-family="Arial, Helvetica, sans-serif" font-size="9.5" font-weight="bold" fill="#b45309">G5</text><text x="2580" y="728" text-anchor="middle" font-family="Arial, Helvetica, sans-serif" font-size="9.2" font-weight="bold" fill="#854d0e">Tuân thủ</text><text x="2580" y="740" text-anchor="middle" font-family="Arial, Helvetica, sans-serif" font-size="9.2" font-weight="bold" fill="#854d0e">chuẩn FEFO?</text><path d="M 2435 790 L 2558 790" fill="none" stroke="#1e3a8a" stroke-width="1.8" marker-end="url(#arr_seq)"/><rect x="2508" y="836" width="145" height="44" rx="6" fill="#ffedd5" stroke="#ea580c" stroke-width="1.8"/><text x="2580" y="856.0" text-anchor="middle" font-family="Arial, Helvetica, sans-serif" font-size="9.8" font-weight="bold" fill="#0f172a">Cảnh báo cận date &amp;</text><text x="2580" y="869.0" text-anchor="middle" font-family="Arial, Helvetica, sans-serif" font-size="9.8" font-weight="bold" fill="#0f172a">sắp xếp lại vị trí</text><path d="M 2580 812 L 2580 836" fill="none" stroke="#1e3a8a" stroke-width="1.8" marker-end="url(#arr_seq)"/><rect x="2587.0" y="812" width="62.0" height="15" rx="3" fill="#ffffff" stroke="#cbd5e1" stroke-width="0.8"/><text x="2618" y="823" text-anchor="middle" font-family="Arial, Helvetica, sans-serif" font-size="9.2" font-weight="bold" fill="#1e293b">Sai date</text><path d="M 2508 858 L 2360 858 L 2360 814" fill="none" stroke="#1e3a8a" stroke-width="1.8" marker-end="url(#arr_seq)"/><rect x="2715" y="766" width="150" height="48" rx="6" fill="#ecfdf5" stroke="#059669" stroke-width="1.8"/><text x="2790" y="788.0" text-anchor="middle" font-family="Arial, Helvetica, sans-serif" font-size="9.8" font-weight="bold" fill="#0f172a">Soạn hàng, dán nhãn</text><text x="2790" y="801.0" text-anchor="middle" font-family="Arial, Helvetica, sans-serif" font-size="9.8" font-weight="bold" fill="#0f172a">&amp; đóng gói kiện xuất</text><path d="M 2602 790 L 2715 790" fill="none" stroke="#1e3a8a" stroke-width="1.8" marker-end="url(#arr_seq)"/><rect x="2629.0" y="768" width="62.0" height="15" rx="3" fill="#ffffff" stroke="#cbd5e1" stroke-width="0.8"/><text x="2660" y="779" text-anchor="middle" font-family="Arial, Helvetica, sans-serif" font-size="9.2" font-weight="bold" fill="#1e293b">Tuân thủ</text><path d="M 3000 768 L 3022 790 L 3000 812 L 2978 790 Z" fill="#fef9c3" stroke="#ca8a04" stroke-width="2"/><text x="3000" y="795.5" text-anchor="middle" font-family="Arial, Helvetica, sans-serif" font-size="14" font-weight="bold" fill="#854d0e">✕</text><rect x="2961" y="765" width="22" height="13" rx="3" fill="#ffffff" stroke="#ca8a04" stroke-width="0.8"/><text x="2972" y="774.5" text-anchor="middle" font-family="Arial, Helvetica, sans-serif" font-size="9.5" font-weight="bold" fill="#b45309">G6</text><text x="3000" y="830" text-anchor="middle" font-family="Arial, Helvetica, sans-serif" font-size="9.2" font-weight="bold" fill="#854d0e">Kiện hàng đạt</text><text x="3000" y="842" text-anchor="middle" font-family="Arial, Helvetica, sans-serif" font-size="9.2" font-weight="bold" fill="#854d0e">chuẩn xuất?</text><path d="M 2865 790 L 2978 790" fill="none" stroke="#1e3a8a" stroke-width="1.8" marker-end="url(#arr_seq)"/><rect x="2928" y="700" width="145" height="44" rx="6" fill="#ffedd5" stroke="#ea580c" stroke-width="1.8"/><text x="3000" y="720.0" text-anchor="middle" font-family="Arial, Helvetica, sans-serif" font-size="9.8" font-weight="bold" fill="#0f172a">Đóng gói niêm phong lại</text><text x="3000" y="733.0" text-anchor="middle" font-family="Arial, Helvetica, sans-serif" font-size="9.8" font-weight="bold" fill="#0f172a">&amp; dán tem kiểm định</text><path d="M 3000 768 L 3000 744" fill="none" stroke="#1e3a8a" stroke-width="1.8" marker-end="url(#arr_seq)"/><rect x="3007.0" y="748" width="62.0" height="15" rx="3" fill="#ffffff" stroke="#cbd5e1" stroke-width="0.8"/><text x="3038" y="759" text-anchor="middle" font-family="Arial, Helvetica, sans-serif" font-size="9.2" font-weight="bold" fill="#1e293b">Lỗi kiện</text><path d="M 2928 722 L 2790 722 L 2790 766" fill="none" stroke="#1e3a8a" stroke-width="1.8" marker-end="url(#arr_seq)"/><rect x="3135" y="766" width="150" height="48" rx="6" fill="#ecfdf5" stroke="#059669" stroke-width="1.8"/><text x="3210" y="788.0" text-anchor="middle" font-family="Arial, Helvetica, sans-serif" font-size="9.8" font-weight="bold" fill="#0f172a">Bốc xếp pallet lên xe tải</text><text x="3210" y="801.0" text-anchor="middle" font-family="Arial, Helvetica, sans-serif" font-size="9.8" font-weight="bold" fill="#0f172a">&amp; bàn giao vận chuyển</text><path d="M 3022 790 L 3135 790" fill="none" stroke="#1e3a8a" stroke-width="1.8" marker-end="url(#arr_seq)"/><rect x="3045.75" y="768" width="68.5" height="15" rx="3" fill="#ffffff" stroke="#cbd5e1" stroke-width="0.8"/><text x="3080" y="779" text-anchor="middle" font-family="Arial, Helvetica, sans-serif" font-size="9.2" font-weight="bold" fill="#1e293b">Đạt chuẩn</text><rect x="3135" y="1221" width="150" height="48" rx="6" fill="#dcfce7" stroke="#16a34a" stroke-width="1.8"/><text x="3210" y="1243.0" text-anchor="middle" font-family="Arial, Helvetica, sans-serif" font-size="9.8" font-weight="bold" fill="#0f172a">Tiếp nhận kiện hàng</text><text x="3210" y="1256.0" text-anchor="middle" font-family="Arial, Helvetica, sans-serif" font-size="9.8" font-weight="bold" fill="#0f172a">&amp; vận chuyển 1.800+ shop</text><path d="M 3210 814 L 3210 1221" fill="none" stroke="#475569" stroke-width="1.7" stroke-dasharray="5,4" marker-start="url(#circle_msg)" marker-end="url(#arr_msg)"/><rect x="3106.25" y="970" width="107.5" height="15" rx="3" fill="#ffffff" stroke="#cbd5e1" stroke-width="0.8"/><text x="3160" y="981" text-anchor="middle" font-family="Arial, Helvetica, sans-serif" font-size="9.2" font-weight="bold" fill="#475569">Bàn giao xe tải</text><circle cx="3390" cy="1245" r="17" fill="#fee2e2" stroke="#dc2626" stroke-width="3.5"/><text x="3416" y="1242.5" text-anchor="start" font-family="Arial, Helvetica, sans-serif" font-size="9" fill="#991b1b" font-weight="bold">Giao hàng an toàn</text><text x="3416" y="1254.5" text-anchor="start" font-family="Arial, Helvetica, sans-serif" font-size="9" fill="#991b1b" font-weight="bold">đến 1.800+ shop</text><path d="M 3285 1245 L 3373 1245" fill="none" stroke="#1e3a8a" stroke-width="1.8" marker-end="url(#arr_seq)"/><rect x="3388" y="1016" width="145" height="48" rx="6" fill="#fdf2f8" stroke="#db2777" stroke-width="1.8"/><text x="3460" y="1038.0" text-anchor="middle" font-family="Arial, Helvetica, sans-serif" font-size="9.8" font-weight="bold" fill="#0f172a">Kích hoạt lịch kiểm kê</text><text x="3460" y="1051.0" text-anchor="middle" font-family="Arial, Helvetica, sans-serif" font-size="9.8" font-weight="bold" fill="#0f172a">định kỳ toàn kho</text><rect x="3412.5" y="1068" width="95.0" height="12" rx="2" fill="#ffffff" fill-opacity="0.95"/><text x="3460" y="1077" text-anchor="middle" font-family="Arial, Helvetica, sans-serif" font-size="8.5" fill="#dc2626" font-style="italic" font-weight="bold">[Đóng băng kho]</text><path d="M 3285 790 L 3330 790 L 3330 1040 L 3388 1040" fill="none" stroke="#1e3a8a" stroke-width="1.8" marker-end="url(#arr_seq)"/><rect x="3257.5" y="768" width="101.0" height="15" rx="3" fill="#ffffff" stroke="#cbd5e1" stroke-width="0.8"/><text x="3308" y="779" text-anchor="middle" font-family="Arial, Helvetica, sans-serif" font-size="9.2" font-weight="bold" fill="#1e293b">Đến kỳ kiểm kê</text><rect x="3608" y="1016" width="145" height="48" rx="6" fill="#fdf2f8" stroke="#db2777" stroke-width="1.8"/><text x="3680" y="1038.0" text-anchor="middle" font-family="Arial, Helvetica, sans-serif" font-size="9.8" font-weight="bold" fill="#0f172a">Kiểm đếm toàn kho &amp;</text><text x="3680" y="1051.0" text-anchor="middle" font-family="Arial, Helvetica, sans-serif" font-size="9.8" font-weight="bold" fill="#0f172a">đối chiếu số liệu ERP</text><rect x="3612.2" y="1068" width="135.6" height="12" rx="2" fill="#ffffff" fill-opacity="0.95"/><text x="3680" y="1077" text-anchor="middle" font-family="Arial, Helvetica, sans-serif" font-size="8.5" fill="#dc2626" font-style="italic" font-weight="bold">[Kiểm kê thủ công 48h]</text><path d="M 3532 1040 L 3608 1040" fill="none" stroke="#1e3a8a" stroke-width="1.8" marker-end="url(#arr_seq)"/><path d="M 3870 1018 L 3892 1040 L 3870 1062 L 3848 1040 Z" fill="#fef9c3" stroke="#ca8a04" stroke-width="2"/><text x="3870" y="1045.5" text-anchor="middle" font-family="Arial, Helvetica, sans-serif" font-size="14" font-weight="bold" fill="#854d0e">✕</text><rect x="3831" y="1015" width="22" height="13" rx="3" fill="#ffffff" stroke="#ca8a04" stroke-width="0.8"/><text x="3842" y="1024.5" text-anchor="middle" font-family="Arial, Helvetica, sans-serif" font-size="9.5" font-weight="bold" fill="#b45309">G7</text><text x="3870" y="1080" text-anchor="middle" font-family="Arial, Helvetica, sans-serif" font-size="9.2" font-weight="bold" fill="#854d0e">Số liệu tồn</text><text x="3870" y="1092" text-anchor="middle" font-family="Arial, Helvetica, sans-serif" font-size="9.2" font-weight="bold" fill="#854d0e">có sai lệch?</text><path d="M 3752 1040 L 3848 1040" fill="none" stroke="#1e3a8a" stroke-width="1.8" marker-end="url(#arr_seq)"/><rect x="3800" y="950" width="140" height="44" rx="6" fill="#ecfdf5" stroke="#059669" stroke-width="1.8"/><text x="3870" y="970.0" text-anchor="middle" font-family="Arial, Helvetica, sans-serif" font-size="9.8" font-weight="bold" fill="#0f172a">Xác nhận biên bản &amp;</text><text x="3870" y="983.0" text-anchor="middle" font-family="Arial, Helvetica, sans-serif" font-size="9.8" font-weight="bold" fill="#0f172a">khóa sổ kiểm kê</text><path d="M 3870 1018 L 3870 994" fill="none" stroke="#1e3a8a" stroke-width="1.8" marker-end="url(#arr_seq)"/><rect x="3887.0" y="998" width="36.0" height="15" rx="3" fill="#ffffff" stroke="#cbd5e1" stroke-width="0.8"/><text x="3905" y="1009" text-anchor="middle" font-family="Arial, Helvetica, sans-serif" font-size="9.2" font-weight="bold" fill="#1e293b">Khớp</text><circle cx="4020" cy="972" r="17" fill="#fee2e2" stroke="#dc2626" stroke-width="3.5"/><text x="4046" y="969.5" text-anchor="start" font-family="Arial, Helvetica, sans-serif" font-size="9" fill="#991b1b" font-weight="bold">Hoàn tất kiểm kê</text><text x="4046" y="981.5" text-anchor="start" font-family="Arial, Helvetica, sans-serif" font-size="9" fill="#991b1b" font-weight="bold">khớp 100%</text><path d="M 3940 972 L 4003 972" fill="none" stroke="#1e3a8a" stroke-width="1.8" marker-end="url(#arr_seq)"/><rect x="4018" y="1016" width="145" height="48" rx="6" fill="#fee2e2" stroke="#dc2626" stroke-width="1.8"/><text x="4090" y="1038.0" text-anchor="middle" font-family="Arial, Helvetica, sans-serif" font-size="9.8" font-weight="bold" fill="#0f172a">Tính tỷ lệ thất thoát</text><text x="4090" y="1051.0" text-anchor="middle" font-family="Arial, Helvetica, sans-serif" font-size="9.8" font-weight="bold" fill="#0f172a">&amp; truy vết nguyên nhân</text><rect x="4025.1" y="1068" width="129.8" height="12" rx="2" fill="#ffffff" fill-opacity="0.95"/><text x="4090" y="1077" text-anchor="middle" font-family="Arial, Helvetica, sans-serif" font-size="8.5" fill="#dc2626" font-style="italic" font-weight="bold">[Sai lệch thực tế 8%]</text><path d="M 3892 1040 L 4018 1040" fill="none" stroke="#1e3a8a" stroke-width="1.8" marker-end="url(#arr_seq)"/><rect x="3924.0" y="1018" width="62.0" height="15" rx="3" fill="#ffffff" stroke="#cbd5e1" stroke-width="0.8"/><text x="3955" y="1029" text-anchor="middle" font-family="Arial, Helvetica, sans-serif" font-size="9.2" font-weight="bold" fill="#1e293b">Lệch tồn</text><path d="M 4290 1018 L 4312 1040 L 4290 1062 L 4268 1040 Z" fill="#fef9c3" stroke="#ca8a04" stroke-width="2"/><text x="4290" y="1045.5" text-anchor="middle" font-family="Arial, Helvetica, sans-serif" font-size="14" font-weight="bold" fill="#854d0e">✕</text><rect x="4251" y="1015" width="22" height="13" rx="3" fill="#ffffff" stroke="#ca8a04" stroke-width="0.8"/><text x="4262" y="1024.5" text-anchor="middle" font-family="Arial, Helvetica, sans-serif" font-size="9.5" font-weight="bold" fill="#b45309">G8</text><text x="4290" y="978" text-anchor="middle" font-family="Arial, Helvetica, sans-serif" font-size="9.2" font-weight="bold" fill="#854d0e">Tỷ lệ lệch</text><text x="4290" y="990" text-anchor="middle" font-family="Arial, Helvetica, sans-serif" font-size="9.2" font-weight="bold" fill="#854d0e">&lt;= 1%?</text><path d="M 4162 1040 L 4268 1040" fill="none" stroke="#1e3a8a" stroke-width="1.8" marker-end="url(#arr_seq)"/><rect x="4218" y="1086" width="145" height="44" rx="6" fill="#fee2e2" stroke="#dc2626" stroke-width="1.8"/><text x="4290" y="1106.0" text-anchor="middle" font-family="Arial, Helvetica, sans-serif" font-size="9.8" font-weight="bold" fill="#0f172a">Lập hồ sơ bồi thường &amp;</text><text x="4290" y="1119.0" text-anchor="middle" font-family="Arial, Helvetica, sans-serif" font-size="9.8" font-weight="bold" fill="#0f172a">báo cáo Giám đốc chuỗi</text><path d="M 4290 1062 L 4290 1086" fill="none" stroke="#1e3a8a" stroke-width="1.8" marker-end="url(#arr_seq)"/><rect x="4302.25" y="1062" width="55.5" height="15" rx="3" fill="#ffffff" stroke="#cbd5e1" stroke-width="0.8"/><text x="4330" y="1073" text-anchor="middle" font-family="Arial, Helvetica, sans-serif" font-size="9.2" font-weight="bold" fill="#1e293b">Vượt 1%</text><circle cx="4440" cy="1108" r="17" fill="#fee2e2" stroke="#dc2626" stroke-width="3.5"/><text x="4466" y="1105.5" text-anchor="start" font-family="Arial, Helvetica, sans-serif" font-size="9" fill="#991b1b" font-weight="bold">Xử lý kỷ luật</text><text x="4466" y="1117.5" text-anchor="start" font-family="Arial, Helvetica, sans-serif" font-size="9" fill="#991b1b" font-weight="bold">thất thoát nặng</text><path d="M 4362 1108 L 4423 1108" fill="none" stroke="#1e3a8a" stroke-width="1.8" marker-end="url(#arr_seq)"/><rect x="4418" y="1016" width="145" height="48" rx="6" fill="#ecfdf5" stroke="#059669" stroke-width="1.8"/><text x="4490" y="1038.0" text-anchor="middle" font-family="Arial, Helvetica, sans-serif" font-size="9.8" font-weight="bold" fill="#0f172a">Điều chỉnh cân bằng tồn</text><text x="4490" y="1051.0" text-anchor="middle" font-family="Arial, Helvetica, sans-serif" font-size="9.8" font-weight="bold" fill="#0f172a">&amp; hạch toán hao hụt</text><path d="M 4312 1040 L 4418 1040" fill="none" stroke="#1e3a8a" stroke-width="1.8" marker-end="url(#arr_seq)"/><rect x="4343.75" y="1018" width="42.5" height="15" rx="3" fill="#ffffff" stroke="#cbd5e1" stroke-width="0.8"/><text x="4365" y="1029" text-anchor="middle" font-family="Arial, Helvetica, sans-serif" font-size="9.2" font-weight="bold" fill="#1e293b">&lt;= 1%</text><circle cx="4630" cy="1040" r="17" fill="#fee2e2" stroke="#dc2626" stroke-width="3.5"/><text x="4656" y="1037.5" text-anchor="start" font-family="Arial, Helvetica, sans-serif" font-size="9" fill="#991b1b" font-weight="bold">Cân bằng tồn kho</text><text x="4656" y="1049.5" text-anchor="start" font-family="Arial, Helvetica, sans-serif" font-size="9" fill="#991b1b" font-weight="bold">thành công</text><path d="M 4562 1040 L 4613 1040" fill="none" stroke="#1e3a8a" stroke-width="1.8" marker-end="url(#arr_seq)"/><rect x="135" y="1335" width="1080" height="46" rx="5" fill="#ffffff" stroke="#cbd5e1" stroke-width="1"/><text x="145" y="1350" font-family="Arial, Helvetica, sans-serif" font-size="10" font-weight="bold" fill="#1e293b">CHÚ THÍCH KÝ HIỆU BPMN 2.0 (AS-IS):</text><circle cx="155" cy="1369" r="7" fill="#dcfce7" stroke="#16a34a" stroke-width="2"/><text x="168" y="1372" font-family="Arial, Helvetica, sans-serif" font-size="9" fill="#334155">Start Event (1 điểm)</text><circle cx="280" cy="1369" r="7" fill="#fee2e2" stroke="#dc2626" stroke-width="2.5"/><text x="293" y="1372" font-family="Arial, Helvetica, sans-serif" font-size="9" fill="#334155">End Event (Kết thúc)</text><polygon points="410,1363 417,1369 410,1375 403,1369" fill="#fef9c3" stroke="#ca8a04" stroke-width="1.5"/><text x="423" y="1372" font-family="Arial, Helvetica, sans-serif" font-size="9" fill="#334155">XOR Gateway (8 cổng: G1 - G8 &gt; 7)</text><line x1="590" y1="1369" x2="620" y2="1369" stroke="#1e3a8a" stroke-width="1.8"/><text x="625" y="1372" font-family="Arial, Helvetica, sans-serif" font-size="9" fill="#334155">Sequence Flow (Nội bộ Pool)</text><line x1="800" y1="1369" x2="830" y2="1369" stroke="#475569" stroke-width="1.6" stroke-dasharray="4,3"/><text x="835" y="1372" font-family="Arial, Helvetica, sans-serif" font-size="9" fill="#334155">Message Flow (Liên Pool)</text><text x="1000" y="1372" font-family="Arial, Helvetica, sans-serif" font-size="9" fill="#dc2626" font-style="italic" font-weight="bold">[Điểm nghẽn AS-IS]</text><text x="4755" y="1385" text-anchor="end" font-family="Arial, Helvetica, sans-serif" font-size="11" font-style="italic" fill="#94a3b8">Hình 4.5: Sơ đồ BPMN 2.0 (AS-IS) – Quy trình quản lý kho Dược Trung tâm (Trọng điểm 2) • 8 Gateways • 0% Deadlock</text>
</svg>