<svg xmlns="http://www.w3.org/2000/svg" viewBox="0 0 2200 850" width="2200" height="850">
<defs><marker id="arr" markerWidth="8" markerHeight="6" refX="7" refY="3" orient="auto"><path d="M0 0L8 3L0 6z" fill="#1e3a5f"/></marker>
<marker id="msg_arr" markerWidth="9" markerHeight="7" refX="8" refY="3.5" orient="auto"><path d="M0 0L8 3.5L0 7z" fill="white" stroke="#64748b" stroke-width="1.2"/></marker></defs>
<rect x="0" y="0" width="2200" height="850" fill="#f8fafc"/>
<text x="1100" y="32" text-anchor="middle" font-family="Arial" font-size="18" font-weight="bold" fill="#0f172a">BPMN 2.0 AS-IS – QUY TRÌNH BÁN THUỐC TẠI NHÀ THUỐC (FPT LONG CHÂU - TRỌNG ĐIỂM SỐ 1)</text>
<text x="1100" y="50" text-anchor="middle" font-family="Arial" font-size="11" font-style="italic" fill="#475569">Mô hình hóa chuẩn 8 Cổng điều kiện (Gateways &gt; 7) • 0% Deadlock • Khắc phục điểm nghẽn tương tác Khách hàng - Dược sĩ</text>
<rect x="0" y="60" width="40" height="680" fill="#cbd5e1" stroke="#1e293b" stroke-width="2.5"/>
<text x="-400" y="25" transform="rotate(-90)" text-anchor="middle" font-family="Arial" font-size="12" font-weight="bold" fill="#0f172a" letter-spacing="2">QUY TRÌNH BÁN LẺ NHÀ THUỐC (AS-IS)</text>
<rect x="40" y="60" width="2160" height="680" fill="none" stroke="#1e293b" stroke-width="2.5"/>
<rect x="40" y="60" width="90" height="680" fill="#e2e8f0" stroke="#1e293b" stroke-width="1.5"/>
<rect x="130" y="60" width="2070" height="170" fill="#eff6ff" opacity="0.6"/>
<text x="85" y="142.0" text-anchor="middle" font-family="Arial" font-size="10" font-weight="bold" fill="#1e293b">KHÁCH HÀNG</text>
<text x="85" y="156.0" text-anchor="middle" font-family="Arial" font-size="10" font-weight="bold" fill="#1e293b">(NGƯỜI BỆNH)</text>
<line x1="40" y1="230" x2="2200" y2="230" stroke="#94a3b8" stroke-width="1.2" stroke-dasharray="4,2"/>
<rect x="130" y="230" width="2070" height="180" fill="#f0fdf4" opacity="0.6"/>
<text x="85" y="317.0" text-anchor="middle" font-family="Arial" font-size="10" font-weight="bold" fill="#1e293b">DƯỢC SĨ TƯ VẤN</text>
<text x="85" y="331.0" text-anchor="middle" font-family="Arial" font-size="10" font-weight="bold" fill="#1e293b">& BÁN LẺ TẠI QUẦY</text>
<line x1="40" y1="410" x2="2200" y2="410" stroke="#94a3b8" stroke-width="1.2" stroke-dasharray="4,2"/>
<rect x="130" y="410" width="2070" height="170" fill="#fffbeb" opacity="0.6"/>
<text x="85" y="492.0" text-anchor="middle" font-family="Arial" font-size="10" font-weight="bold" fill="#1e293b">THU NGÂN &</text>
<text x="85" y="506.0" text-anchor="middle" font-family="Arial" font-size="10" font-weight="bold" fill="#1e293b">HỆ THỐNG POS</text>
<line x1="40" y1="580" x2="2200" y2="580" stroke="#94a3b8" stroke-width="1.2" stroke-dasharray="4,2"/>
<rect x="130" y="580" width="2070" height="160" fill="#faf5ff" opacity="0.6"/>
<text x="85" y="657.0" text-anchor="middle" font-family="Arial" font-size="10" font-weight="bold" fill="#1e293b">KHO THUỐC QUẦY</text>
<text x="85" y="671.0" text-anchor="middle" font-family="Arial" font-size="10" font-weight="bold" fill="#1e293b">& BẢO QUẢN GPP</text>
<circle cx="160" cy="145" r="16" fill="#bbf7d0" stroke="#15803d" stroke-width="2.2"/>
<text x="160" y="173" text-anchor="middle" font-family="Arial" font-size="9" font-weight="bold" fill="#166534">Khách đến quầy</text>
<rect x="200" y="121" width="120" height="48" rx="6" fill="#dbeafe" stroke="#2563ab" stroke-width="1.8"/>
<text x="260" y="142.5" text-anchor="middle" font-family="Arial" font-size="9.5" fill="#0f172a">Trình đơn thuốc hoặc</text>
<text x="260" y="155.5" text-anchor="middle" font-family="Arial" font-size="9.5" fill="#0f172a">yêu cầu tư vấn</text>
<text x="260" y="182" text-anchor="middle" font-family="Arial" font-size="8" fill="#dc2626" font-style="italic" font-weight="bold">Không lấy số</text>
<path d="M 176,145 L 200,145" fill="none" stroke="#1e3a5f" stroke-width="1.6" marker-end="url(#arr)"/>
<rect x="200" y="296" width="120" height="48" rx="6" fill="#dbeafe" stroke="#2563ab" stroke-width="1.8"/>
<text x="260" y="317.5" text-anchor="middle" font-family="Arial" font-size="9.5" fill="#0f172a">Tiếp nhận yêu cầu</text>
<text x="260" y="330.5" text-anchor="middle" font-family="Arial" font-size="9.5" fill="#0f172a">&amp; chào hỏi khách</text>
<path d="M 260,169 L 260,296" fill="none" stroke="#1e3a5f" stroke-width="1.6" marker-end="url(#arr)"/>
<polygon points="380,300 400,320 380,340 360,320" fill="#fef08a" stroke="#b45309" stroke-width="2"/>
<text x="380" y="324" text-anchor="middle" font-family="Arial" font-size="11" font-weight="bold" fill="#b45309">×</text>
<text x="380" y="294" text-anchor="middle" font-family="Arial" font-size="9" font-weight="bold" fill="#b45309">G1</text>
<text x="380" y="347.5" text-anchor="middle" font-family="Arial" font-size="8.5" font-weight="bold" fill="#78350f">Có đơn thuốc</text>
<text x="380" y="358.5" text-anchor="middle" font-family="Arial" font-size="8.5" font-weight="bold" fill="#78350f">bác sĩ?</text>
<path d="M 320,320 L 360,320" fill="none" stroke="#1e3a5f" stroke-width="1.6" marker-end="url(#arr)"/>
<rect x="320" y="371" width="120" height="48" rx="6" fill="#fef3c7" stroke="#d97706" stroke-width="1.8"/>
<text x="380" y="392.5" text-anchor="middle" font-family="Arial" font-size="9.5" fill="#0f172a">Hỏi triệu chứng &amp;</text>
<text x="380" y="405.5" text-anchor="middle" font-family="Arial" font-size="9.5" fill="#0f172a">tư vấn thuốc OTC</text>
<text x="380" y="432" text-anchor="middle" font-family="Arial" font-size="8" fill="#dc2626" font-style="italic" font-weight="bold">Kinh nghiệm cá nhân</text>
<path d="M 380,340 L 380,371" fill="none" stroke="#1e3a5f" stroke-width="1.6" marker-end="url(#arr)"/>
<rect x="387" y="347" width="36" height="16" rx="3" fill="#ffffff" stroke="#e2e8f0" stroke-width="0.8"/>
<text x="405" y="358.5" text-anchor="middle" font-family="Arial" font-size="9" font-weight="bold" fill="#dc2626">Không</text>
<rect x="440" y="296" width="120" height="48" rx="6" fill="#f1f5f9" stroke="#2563ab" stroke-width="1.8"/>
<text x="500" y="317.5" text-anchor="middle" font-family="Arial" font-size="9.5" fill="#0f172a">Thẩm định tính hợp lệ</text>
<text x="500" y="330.5" text-anchor="middle" font-family="Arial" font-size="9.5" fill="#0f172a">của đơn thuốc</text>
<text x="500" y="357" text-anchor="middle" font-family="Arial" font-size="8" fill="#dc2626" font-style="italic" font-weight="bold">Kiểm giấy bằng mắt</text>
<path d="M 400,320 L 440,320" fill="none" stroke="#1e3a5f" stroke-width="1.6" marker-end="url(#arr)"/>
<rect x="402" y="302" width="36" height="16" rx="3" fill="#ffffff" stroke="#e2e8f0" stroke-width="0.8"/>
<text x="420" y="313.5" text-anchor="middle" font-family="Arial" font-size="9" font-weight="bold" fill="#15803d">Có</text>
<polygon points="620,300 640,320 620,340 600,320" fill="#fef08a" stroke="#b45309" stroke-width="2"/>
<text x="620" y="324" text-anchor="middle" font-family="Arial" font-size="11" font-weight="bold" fill="#b45309">×</text>
<text x="620" y="294" text-anchor="middle" font-family="Arial" font-size="9" font-weight="bold" fill="#b45309">G2</text>
<text x="620" y="347.5" text-anchor="middle" font-family="Arial" font-size="8.5" font-weight="bold" fill="#78350f">Đơn thuốc</text>
<text x="620" y="358.5" text-anchor="middle" font-family="Arial" font-size="8.5" font-weight="bold" fill="#78350f">hợp lệ?</text>
<path d="M 560,320 L 600,320" fill="none" stroke="#1e3a5f" stroke-width="1.6" marker-end="url(#arr)"/>
<rect x="560" y="121" width="120" height="48" rx="6" fill="#fee2e2" stroke="#dc2626" stroke-width="1.8"/>
<text x="620" y="142.5" text-anchor="middle" font-family="Arial" font-size="9.5" fill="#0f172a">Nhận lại đơn thuốc</text>
<text x="620" y="155.5" text-anchor="middle" font-family="Arial" font-size="9.5" fill="#0f172a">&amp; nghe giải thích</text>
<circle cx="720" cy="145" r="16" fill="#fecaca" stroke="#dc2626" stroke-width="3.5"/>
<text x="720" y="173" text-anchor="middle" font-family="Arial" font-size="9" font-weight="bold" fill="#991b1b">Từ chối toa</text>
<path d="M 620,300 L 620,169" fill="none" stroke="#1e3a5f" stroke-width="1.6" marker-end="url(#arr)"/>
<rect x="627" y="222" width="36" height="16" rx="3" fill="#ffffff" stroke="#e2e8f0" stroke-width="0.8"/>
<text x="645" y="233.5" text-anchor="middle" font-family="Arial" font-size="9" font-weight="bold" fill="#dc2626">Hết hạn</text>
<path d="M 680,145 L 704,145" fill="none" stroke="#1e3a5f" stroke-width="1.6" marker-end="url(#arr)"/>
<rect x="680" y="296" width="120" height="48" rx="6" fill="#dbeafe" stroke="#2563ab" stroke-width="1.8"/>
<text x="740" y="317.5" text-anchor="middle" font-family="Arial" font-size="9.5" fill="#0f172a">Tra cứu danh mục</text>
<text x="740" y="330.5" text-anchor="middle" font-family="Arial" font-size="9.5" fill="#0f172a">thuốc trên máy POS</text>
<text x="740" y="357" text-anchor="middle" font-family="Arial" font-size="8" fill="#dc2626" font-style="italic" font-weight="bold">Tra từng tên thuốc</text>
<path d="M 640,320 L 680,320" fill="none" stroke="#1e3a5f" stroke-width="1.6" marker-end="url(#arr)"/>
<rect x="642" y="302" width="36" height="16" rx="3" fill="#ffffff" stroke="#e2e8f0" stroke-width="0.8"/>
<text x="660" y="313.5" text-anchor="middle" font-family="Arial" font-size="9" font-weight="bold" fill="#dc2626">Hợp lệ</text>
<path d="M 440,395 L 740,395 L 740,344" fill="none" stroke="#1e3a5f" stroke-width="1.6" marker-end="url(#arr)"/>
<polygon points="860,300 880,320 860,340 840,320" fill="#fef08a" stroke="#b45309" stroke-width="2"/>
<text x="860" y="324" text-anchor="middle" font-family="Arial" font-size="11" font-weight="bold" fill="#b45309">×</text>
<text x="860" y="294" text-anchor="middle" font-family="Arial" font-size="9" font-weight="bold" fill="#b45309">G3</text>
<text x="860" y="347.5" text-anchor="middle" font-family="Arial" font-size="8.5" font-weight="bold" fill="#78350f">Đủ số lượng</text>
<text x="860" y="358.5" text-anchor="middle" font-family="Arial" font-size="8.5" font-weight="bold" fill="#78350f">tại quầy?</text>
<path d="M 800,320 L 840,320" fill="none" stroke="#1e3a5f" stroke-width="1.6" marker-end="url(#arr)"/>
<rect x="800" y="121" width="120" height="48" rx="6" fill="#fef3c7" stroke="#d97706" stroke-width="1.8"/>
<text x="860" y="142.5" text-anchor="middle" font-family="Arial" font-size="9.5" fill="#0f172a">Cân nhắc thuốc biệt dược</text>
<text x="860" y="155.5" text-anchor="middle" font-family="Arial" font-size="9.5" fill="#0f172a">hoạt chất tương đương</text>
<path d="M 860,300 L 860,169" fill="none" stroke="#1e3a5f" stroke-width="1.6" marker-end="url(#arr)"/>
<rect x="867" y="222" width="36" height="16" rx="3" fill="#ffffff" stroke="#e2e8f0" stroke-width="0.8"/>
<text x="885" y="233.5" text-anchor="middle" font-family="Arial" font-size="9" font-weight="bold" fill="#dc2626">Thiếu</text>
<polygon points="980,125 1000,145 980,165 960,145" fill="#fef08a" stroke="#b45309" stroke-width="2"/>
<text x="980" y="149" text-anchor="middle" font-family="Arial" font-size="11" font-weight="bold" fill="#b45309">×</text>
<text x="980" y="119" text-anchor="middle" font-family="Arial" font-size="9" font-weight="bold" fill="#b45309">G4</text>
<text x="980" y="172.5" text-anchor="middle" font-family="Arial" font-size="8.5" font-weight="bold" fill="#78350f">Khách đồng ý</text>
<text x="980" y="183.5" text-anchor="middle" font-family="Arial" font-size="8.5" font-weight="bold" fill="#78350f">đổi thuốc?</text>
<path d="M 920,145 L 960,145" fill="none" stroke="#1e3a5f" stroke-width="1.6" marker-end="url(#arr)"/>
<rect x="1030" y="121" width="120" height="48" rx="6" fill="#fee2e2" stroke="#dc2626" stroke-width="1.8"/>
<text x="1090" y="142.5" text-anchor="middle" font-family="Arial" font-size="9.5" fill="#0f172a">Nhận địa chỉ shop khác</text>
<text x="1090" y="155.5" text-anchor="middle" font-family="Arial" font-size="9.5" fill="#0f172a">&amp; rời quầy</text>
<circle cx="1200" cy="145" r="16" fill="#fecaca" stroke="#dc2626" stroke-width="3.5"/>
<text x="1200" y="173" text-anchor="middle" font-family="Arial" font-size="9" font-weight="bold" fill="#991b1b">Hết hàng</text>
<path d="M 1000,145 L 1030,145" fill="none" stroke="#1e3a5f" stroke-width="1.6" marker-end="url(#arr)"/>
<rect x="997" y="127" width="36" height="16" rx="3" fill="#ffffff" stroke="#e2e8f0" stroke-width="0.8"/>
<text x="1015" y="138.5" text-anchor="middle" font-family="Arial" font-size="9" font-weight="bold" fill="#dc2626">Không</text>
<path d="M 1150,145 L 1184,145" fill="none" stroke="#1e3a5f" stroke-width="1.6" marker-end="url(#arr)"/>
<rect x="920" y="636" width="120" height="48" rx="6" fill="#f1f5f9" stroke="#2563ab" stroke-width="1.8"/>
<text x="980" y="657.5" text-anchor="middle" font-family="Arial" font-size="9.5" fill="#0f172a">Tìm vị trí thuốc trên kệ</text>
<text x="980" y="670.5" text-anchor="middle" font-family="Arial" font-size="9.5" fill="#0f172a">&amp; lấy thuốc thủ công</text>
<text x="980" y="697" text-anchor="middle" font-family="Arial" font-size="8" fill="#dc2626" font-style="italic" font-weight="bold">Đi lại tìm kiếm 2.5'</text>
<path d="M 860,340 L 860,660 L 920,660" fill="none" stroke="#1e3a5f" stroke-width="1.6" marker-end="url(#arr)"/>
<rect x="862" y="392" width="36" height="16" rx="3" fill="#ffffff" stroke="#e2e8f0" stroke-width="0.8"/>
<text x="880" y="403.5" text-anchor="middle" font-family="Arial" font-size="9" font-weight="bold" fill="#15803d">Đủ</text>
<path d="M 980,165 L 980,300" fill="none" stroke="#1e3a5f" stroke-width="1.6" marker-end="url(#arr)"/>
<rect x="987" y="222" width="36" height="16" rx="3" fill="#ffffff" stroke="#e2e8f0" stroke-width="0.8"/>
<text x="1005" y="233.5" text-anchor="middle" font-family="Arial" font-size="9" font-weight="bold" fill="#15803d">Đồng ý</text>
<path d="M 980,340 L 980,636" fill="none" stroke="#1e3a5f" stroke-width="1.6" marker-end="url(#arr)"/>
<polygon points="1120,640 1140,660 1120,680 1100,660" fill="#fef08a" stroke="#b45309" stroke-width="2"/>
<text x="1120" y="664" text-anchor="middle" font-family="Arial" font-size="11" font-weight="bold" fill="#b45309">×</text>
<text x="1120" y="634" text-anchor="middle" font-family="Arial" font-size="9" font-weight="bold" fill="#b45309">G5</text>
<text x="1120" y="687.5" text-anchor="middle" font-family="Arial" font-size="8.5" font-weight="bold" fill="#78350f">Hạn dùng</text>
<text x="1120" y="698.5" text-anchor="middle" font-family="Arial" font-size="8.5" font-weight="bold" fill="#78350f">&gt; 6 tháng?</text>
<path d="M 1040,660 L 1100,660" fill="none" stroke="#1e3a5f" stroke-width="1.6" marker-end="url(#arr)"/>
<rect x="1060" y="691" width="120" height="48" rx="6" fill="#fee2e2" stroke="#dc2626" stroke-width="1.8"/>
<text x="1120" y="712.5" text-anchor="middle" font-family="Arial" font-size="9.5" fill="#0f172a">Đưa vào hộp cách ly</text>
<text x="1120" y="725.5" text-anchor="middle" font-family="Arial" font-size="9.5" fill="#0f172a">&amp; tìm lô thuốc khác</text>
<path d="M 1120,680 L 1120,691" fill="none" stroke="#1e3a5f" stroke-width="1.6" marker-end="url(#arr)"/>
<rect x="1127" y="677" width="36" height="16" rx="3" fill="#ffffff" stroke="#e2e8f0" stroke-width="0.8"/>
<text x="1145" y="688.5" text-anchor="middle" font-family="Arial" font-size="9" font-weight="bold" fill="#dc2626">Cận hạn</text>
<path d="M 1060,715 L 1040,715 L 1040,684" fill="none" stroke="#1e3a5f" stroke-width="1.6" marker-end="url(#arr)"/>
<rect x="1190" y="471" width="120" height="48" rx="6" fill="#dbeafe" stroke="#2563ab" stroke-width="1.8"/>
<text x="1250" y="492.5" text-anchor="middle" font-family="Arial" font-size="9.5" fill="#0f172a">Tiếp nhận đơn &amp;</text>
<text x="1250" y="505.5" text-anchor="middle" font-family="Arial" font-size="9.5" fill="#0f172a">quét mã vạch thuốc</text>
<path d="M 1140,660 L 1190,660 L 1190,495 L 1190,495" fill="none" stroke="#1e3a5f" stroke-width="1.6" marker-end="url(#arr)"/>
<path d="M 1190,495 L 1190,475" fill="none" stroke="#1e3a5f" stroke-width="1.6" marker-end="url(#arr)"/>
<path d="M 1140,660 L 1250,660 L 1250,519" fill="none" stroke="#1e3a5f" stroke-width="1.6" marker-end="url(#arr)"/>
<rect x="1147" y="642" width="36" height="16" rx="3" fill="#ffffff" stroke="#e2e8f0" stroke-width="0.8"/>
<text x="1165" y="653.5" text-anchor="middle" font-family="Arial" font-size="9" font-weight="bold" fill="#15803d">Đạt</text>
<polygon points="1380,475 1400,495 1380,515 1360,495" fill="#fef08a" stroke="#b45309" stroke-width="2"/>
<text x="1380" y="499" text-anchor="middle" font-family="Arial" font-size="11" font-weight="bold" fill="#b45309">×</text>
<text x="1380" y="469" text-anchor="middle" font-family="Arial" font-size="9" font-weight="bold" fill="#b45309">G6</text>
<text x="1380" y="522.5" text-anchor="middle" font-family="Arial" font-size="8.5" font-weight="bold" fill="#78350f">Đã có thẻ</text>
<text x="1380" y="533.5" text-anchor="middle" font-family="Arial" font-size="8.5" font-weight="bold" fill="#78350f">Hội viên CRM?</text>
<path d="M 1310,495 L 1360,495" fill="none" stroke="#1e3a5f" stroke-width="1.6" marker-end="url(#arr)"/>
<rect x="1320" y="121" width="120" height="48" rx="6" fill="#fef3c7" stroke="#d97706" stroke-width="1.8"/>
<text x="1380" y="142.5" text-anchor="middle" font-family="Arial" font-size="9.5" fill="#0f172a">Đọc số điện thoại</text>
<text x="1380" y="155.5" text-anchor="middle" font-family="Arial" font-size="9.5" fill="#0f172a">đăng ký tích điểm</text>
<path d="M 1380,475 L 1380,169" fill="none" stroke="#1e3a5f" stroke-width="1.6" marker-end="url(#arr)"/>
<rect x="1387" y="292" width="36" height="16" rx="3" fill="#ffffff" stroke="#e2e8f0" stroke-width="0.8"/>
<text x="1405" y="303.5" text-anchor="middle" font-family="Arial" font-size="9" font-weight="bold" fill="#dc2626">Chưa</text>
<path d="M 1380,125 L 1440,125 L 1440,471" fill="none" stroke="#1e3a5f" stroke-width="1.6" marker-end="url(#arr)"/>
<rect x="1440" y="471" width="120" height="48" rx="6" fill="#dcfce7" stroke="#16a34a" stroke-width="1.8"/>
<text x="1500" y="492.5" text-anchor="middle" font-family="Arial" font-size="9.5" fill="#0f172a">Áp mã voucher CRM</text>
<text x="1500" y="505.5" text-anchor="middle" font-family="Arial" font-size="9.5" fill="#0f172a">&amp; xuất hóa đơn tạm</text>
<path d="M 1400,495 L 1440,495" fill="none" stroke="#1e3a5f" stroke-width="1.6" marker-end="url(#arr)"/>
<rect x="1402" y="477" width="36" height="16" rx="3" fill="#ffffff" stroke="#e2e8f0" stroke-width="0.8"/>
<text x="1420" y="488.5" text-anchor="middle" font-family="Arial" font-size="9" font-weight="bold" fill="#dc2626">Đã có</text>
<rect x="1440" y="121" width="120" height="48" rx="6" fill="#eff6ff" stroke="#2563ab" stroke-width="1.8"/>
<text x="1500" y="142.5" text-anchor="middle" font-family="Arial" font-size="9.5" fill="#0f172a">Lựa chọn phương thức</text>
<text x="1500" y="155.5" text-anchor="middle" font-family="Arial" font-size="9.5" fill="#0f172a">thanh toán tiền</text>
<path d="M 1500,471 L 1500,169" fill="none" stroke="#1e3a5f" stroke-width="1.6" marker-end="url(#arr)"/>
<polygon points="1630,125 1650,145 1630,165 1610,145" fill="#fef08a" stroke="#b45309" stroke-width="2"/>
<text x="1630" y="149" text-anchor="middle" font-family="Arial" font-size="11" font-weight="bold" fill="#b45309">×</text>
<text x="1630" y="119" text-anchor="middle" font-family="Arial" font-size="9" font-weight="bold" fill="#b45309">G7</text>
<text x="1630" y="172.5" text-anchor="middle" font-family="Arial" font-size="8.5" font-weight="bold" fill="#78350f">Hình thức</text>
<text x="1630" y="183.5" text-anchor="middle" font-family="Arial" font-size="8.5" font-weight="bold" fill="#78350f">thanh toán?</text>
<path d="M 1560,145 L 1610,145" fill="none" stroke="#1e3a5f" stroke-width="1.6" marker-end="url(#arr)"/>
<rect x="1570" y="471" width="120" height="48" rx="6" fill="#f1f5f9" stroke="#2563ab" stroke-width="1.8"/>
<text x="1630" y="492.5" text-anchor="middle" font-family="Arial" font-size="9.5" fill="#0f172a">Thu tiền mặt &amp;</text>
<text x="1630" y="505.5" text-anchor="middle" font-family="Arial" font-size="9.5" fill="#0f172a">thối tiền thừa</text>
<path d="M 1630,165 L 1630,471" fill="none" stroke="#1e3a5f" stroke-width="1.6" marker-end="url(#arr)"/>
<rect x="1637" y="292" width="36" height="16" rx="3" fill="#ffffff" stroke="#e2e8f0" stroke-width="0.8"/>
<text x="1655" y="303.5" text-anchor="middle" font-family="Arial" font-size="9" font-weight="bold" fill="#dc2626">Tiền mặt</text>
<rect x="1700" y="471" width="120" height="48" rx="6" fill="#e0f2fe" stroke="#0284c7" stroke-width="1.8"/>
<text x="1760" y="492.5" text-anchor="middle" font-family="Arial" font-size="9.5" fill="#0f172a">Khách quét mã QR /</text>
<text x="1760" y="505.5" text-anchor="middle" font-family="Arial" font-size="9.5" fill="#0f172a">quẹt thẻ ngân hàng</text>
<path d="M 1650,145 L 1760,145 L 1760,471" fill="none" stroke="#1e3a5f" stroke-width="1.6" marker-end="url(#arr)"/>
<rect x="1662" y="127" width="36" height="16" rx="3" fill="#ffffff" stroke="#e2e8f0" stroke-width="0.8"/>
<text x="1680" y="138.5" text-anchor="middle" font-family="Arial" font-size="9" font-weight="bold" fill="#dc2626">QR / Thẻ</text>
<polygon points="1890,475 1910,495 1890,515 1870,495" fill="#fef08a" stroke="#b45309" stroke-width="2"/>
<text x="1890" y="499" text-anchor="middle" font-family="Arial" font-size="11" font-weight="bold" fill="#b45309">×</text>
<text x="1890" y="469" text-anchor="middle" font-family="Arial" font-size="9" font-weight="bold" fill="#b45309">G8</text>
<text x="1890" y="522.5" text-anchor="middle" font-family="Arial" font-size="8.5" font-weight="bold" fill="#78350f">Thanh toán</text>
<text x="1890" y="533.5" text-anchor="middle" font-family="Arial" font-size="8.5" font-weight="bold" fill="#78350f">thành công?</text>
<path d="M 1820,495 L 1870,495" fill="none" stroke="#1e3a5f" stroke-width="1.6" marker-end="url(#arr)"/>
<path d="M 1690,495 L 1870,495" fill="none" stroke="#1e3a5f" stroke-width="1.6" marker-end="url(#arr)"/>
<rect x="1830" y="121" width="120" height="48" rx="6" fill="#fee2e2" stroke="#dc2626" stroke-width="1.8"/>
<text x="1890" y="142.5" text-anchor="middle" font-family="Arial" font-size="9.5" fill="#0f172a">Nhận báo lỗi POS &amp;</text>
<text x="1890" y="155.5" text-anchor="middle" font-family="Arial" font-size="9.5" fill="#0f172a">hủy giao dịch</text>
<circle cx="1890" cy="90" r="16" fill="#fecaca" stroke="#dc2626" stroke-width="3.5"/>
<text x="1890" y="118" text-anchor="middle" font-family="Arial" font-size="9" font-weight="bold" fill="#991b1b">Lỗi POS</text>
<path d="M 1890,475 L 1890,169" fill="none" stroke="#1e3a5f" stroke-width="1.6" marker-end="url(#arr)"/>
<rect x="1897" y="292" width="36" height="16" rx="3" fill="#ffffff" stroke="#e2e8f0" stroke-width="0.8"/>
<text x="1915" y="303.5" text-anchor="middle" font-family="Arial" font-size="9" font-weight="bold" fill="#dc2626">Lỗi</text>
<path d="M 1890,121 L 1890,106" fill="none" stroke="#1e3a5f" stroke-width="1.6" marker-end="url(#arr)"/>
<rect x="1960" y="471" width="120" height="48" rx="6" fill="#f1f5f9" stroke="#2563ab" stroke-width="1.8"/>
<text x="2020" y="492.5" text-anchor="middle" font-family="Arial" font-size="9.5" fill="#0f172a">In hóa đơn giấy POS</text>
<text x="2020" y="505.5" text-anchor="middle" font-family="Arial" font-size="9.5" fill="#0f172a">&amp; ghi sổ xuất bán</text>
<text x="2020" y="532" text-anchor="middle" font-family="Arial" font-size="8" fill="#dc2626" font-style="italic" font-weight="bold">In bill thủ công</text>
<path d="M 1910,495 L 1960,495" fill="none" stroke="#1e3a5f" stroke-width="1.6" marker-end="url(#arr)"/>
<rect x="1917" y="477" width="36" height="16" rx="3" fill="#ffffff" stroke="#e2e8f0" stroke-width="0.8"/>
<text x="1935" y="488.5" text-anchor="middle" font-family="Arial" font-size="9" font-weight="bold" fill="#15803d">Thành công</text>
<rect x="1960" y="296" width="120" height="48" rx="6" fill="#dcfce7" stroke="#16a34a" stroke-width="1.8"/>
<text x="2020" y="317.5" text-anchor="middle" font-family="Arial" font-size="9.5" fill="#0f172a">Dược sĩ đóng gói thuốc</text>
<text x="2020" y="330.5" text-anchor="middle" font-family="Arial" font-size="9.5" fill="#0f172a">&amp; dặn dò dùng thuốc (4T)</text>
<path d="M 2020,471 L 2020,344" fill="none" stroke="#1e3a5f" stroke-width="1.6" marker-end="url(#arr)"/>
<rect x="1960" y="121" width="120" height="48" rx="6" fill="#dcfce7" stroke="#16a34a" stroke-width="1.8"/>
<text x="2020" y="142.5" text-anchor="middle" font-family="Arial" font-size="9.5" fill="#0f172a">Khách nhận thuốc, hóa đơn</text>
<text x="2020" y="155.5" text-anchor="middle" font-family="Arial" font-size="9.5" fill="#0f172a">&amp; an tâm ra về</text>
<circle cx="2140" cy="145" r="16" fill="#fecaca" stroke="#dc2626" stroke-width="3.5"/>
<text x="2140" y="173" text-anchor="middle" font-family="Arial" font-size="9" font-weight="bold" fill="#991b1b">Hoàn tất đơn</text>
<path d="M 2020,296 L 2020,169" fill="none" stroke="#1e3a5f" stroke-width="1.6" marker-end="url(#arr)"/>
<path d="M 2080,145 L 2124,145" fill="none" stroke="#1e3a5f" stroke-width="1.6" marker-end="url(#arr)"/>
</svg>