<?xml version="1.0" encoding="UTF-8"?>
<svg xmlns="http://www.w3.org/2000/svg" width="1780" height="920" viewBox="0 0 1780 920">
<defs>
      <marker id="arr_seq" markerWidth="8" markerHeight="6" refX="7" refY="3" orient="auto">
        <path d="M0,0 L8,3 L0,6 Z" fill="#1e3a8a"/>
      </marker>
      <marker id="arr_msg" markerWidth="9" markerHeight="7" refX="8" refY="3.5" orient="auto">
        <path d="M1,1 L8,3.5 L1,6" fill="none" stroke="#475569" stroke-width="1.6"/>
      </marker>
      <marker id="circle_msg" markerWidth="6" markerHeight="6" refX="3" refY="3" orient="auto">
        <circle cx="3" cy="3" r="2.5" fill="#ffffff" stroke="#475569" stroke-width="1.3"/>
      </marker>
    </defs><rect x="0" y="0" width="1780" height="920" fill="#ffffff"/><text x="890" y="32" text-anchor="middle" font-family="Arial" font-size="19" font-weight="bold" fill="#0f172a">SƠ ĐỒ BPMN 2.0 (AS-IS) – QUY TRÌNH BÁN THUỐC ONLINE</text><rect x="15" y="50" width="1750" height="120" fill="#ffffff" stroke="#7e22ce" stroke-width="2"/><rect x="15" y="50" width="40" height="120" fill="#7e22ce"/><text x="35" y="110" text-anchor="middle" font-family="Arial" font-size="12" font-weight="bold" fill="#ffffff" transform="rotate(-90 35 110)">KHÁCH HÀNG</text><rect x="55" y="50" width="1710" height="120" fill="#faf5ff" stroke="#cbd5e1" stroke-width="1"/><rect x="55" y="50" width="110" height="120" fill="#f8fafc" stroke="#cbd5e1" stroke-width="1"/><text x="110" y="114.0" text-anchor="middle" font-family="Arial" font-size="10.5" font-weight="bold" fill="#334155">KHÁCH HÀNG</text><rect x="15" y="200" width="1750" height="520" fill="#ffffff" stroke="#1e3a8a" stroke-width="2"/><rect x="15" y="200" width="40" height="520" fill="#1e3a8a"/><text x="35" y="460" text-anchor="middle" font-family="Arial" font-size="11" font-weight="bold" fill="#ffffff" transform="rotate(-90 35 460)">HỆ THỐNG BÁN HÀNG FPT LONG CHÂU</text><rect x="55" y="200" width="1710" height="180" fill="#eff6ff" stroke="#cbd5e1" stroke-width="1"/><rect x="55" y="200" width="110" height="180" fill="#f8fafc" stroke="#cbd5e1" stroke-width="1"/><text x="110" y="286.5" text-anchor="middle" font-family="Arial" font-size="10.5" font-weight="bold" fill="#334155">NHÂN VIÊN CSKH</text><text x="110" y="301.5" text-anchor="middle" font-family="Arial" font-size="10.5" font-weight="bold" fill="#334155">(XỬ LÝ ĐƠN ONLINE)</text><rect x="55" y="380" width="1710" height="170" fill="#f0fdf4" stroke="#cbd5e1" stroke-width="1"/><rect x="55" y="380" width="110" height="170" fill="#f8fafc" stroke="#cbd5e1" stroke-width="1"/><text x="110" y="461.5" text-anchor="middle" font-family="Arial" font-size="10.5" font-weight="bold" fill="#334155">DƯỢC SĨ ONLINE</text><text x="110" y="476.5" text-anchor="middle" font-family="Arial" font-size="10.5" font-weight="bold" fill="#334155">(DUYỆT TOA THUỐC)</text><rect x="55" y="550" width="1710" height="170" fill="#fff7ed" stroke="#cbd5e1" stroke-width="1"/><rect x="55" y="550" width="110" height="170" fill="#f8fafc" stroke="#cbd5e1" stroke-width="1"/><text x="110" y="631.5" text-anchor="middle" font-family="Arial" font-size="10.5" font-weight="bold" fill="#334155">NHÂN VIÊN KHO</text><text x="110" y="646.5" text-anchor="middle" font-family="Arial" font-size="10.5" font-weight="bold" fill="#334155">/ CỬA HÀNG ĐÓNG GÓI</text><rect x="15" y="750" width="1750" height="120" fill="#ffffff" stroke="#c2410c" stroke-width="2"/><rect x="15" y="750" width="40" height="120" fill="#c2410c"/><text x="35" y="810" text-anchor="middle" font-family="Arial" font-size="11" font-weight="bold" fill="#ffffff" transform="rotate(-90 35 810)">ĐỐI TÁC GIAO HÀNG</text><rect x="55" y="750" width="1710" height="120" fill="#fffbeb" stroke="#cbd5e1" stroke-width="1"/><rect x="55" y="750" width="110" height="120" fill="#f8fafc" stroke="#cbd5e1" stroke-width="1"/><text x="110" y="806.5" text-anchor="middle" font-family="Arial" font-size="10.5" font-weight="bold" fill="#334155">ĐƠN VỊ VẬN CHUYỂN</text><text x="110" y="821.5" text-anchor="middle" font-family="Arial" font-size="10.5" font-weight="bold" fill="#334155">(GHN / GHTK)</text><circle cx="180" cy="110" r="17" fill="#dcfce7" stroke="#16a34a" stroke-width="2"/><text x="180" y="140" text-anchor="middle" font-family="Arial" font-size="9" fill="#15803d" font-weight="bold">Đặt hàng</text><rect x="220" y="83" width="140" height="54" rx="6" fill="#f3e8ff" stroke="#9333ea" stroke-width="1.8"/><text x="290" y="107.5" text-anchor="middle" font-family="Arial" font-size="10.5" font-weight="bold" fill="#0f172a">Đặt thuốc trên Web/App</text><text x="290" y="121.5" text-anchor="middle" font-family="Arial" font-size="10.5" font-weight="bold" fill="#0f172a">&amp; gửi ảnh toa thuốc</text><path d="M 197 110 L 220 110" fill="none" stroke="#1e3a8a" stroke-width="1.8" marker-end="url(#arr_seq)"/><circle cx="180" cy="290" r="17" fill="#dcfce7" stroke="#16a34a" stroke-width="2"/><text x="180" y="320" text-anchor="middle" font-family="Arial" font-size="9" fill="#15803d" font-weight="bold">Bắt đầu</text><rect x="220" y="263" width="140" height="54" rx="6" fill="#eff6ff" stroke="#2563eb" stroke-width="1.8"/><text x="290" y="287.5" text-anchor="middle" font-family="Arial" font-size="10.5" font-weight="bold" fill="#0f172a">Tiếp nhận đơn hàng</text><text x="290" y="301.5" text-anchor="middle" font-family="Arial" font-size="10.5" font-weight="bold" fill="#0f172a">từ hệ thống online</text><path d="M 197 290 L 220 290" fill="none" stroke="#1e3a8a" stroke-width="1.8" marker-end="url(#arr_seq)"/><path d="M 290 137 L 290 263" fill="none" stroke="#475569" stroke-width="1.7" stroke-dasharray="5,4" marker-start="url(#circle_msg)" marker-end="url(#arr_msg)"/><path d="M 410 268 L 432 290 L 410 312 L 388 290 Z" fill="#fef9c3" stroke="#ca8a04" stroke-width="2"/><text x="410" y="295" text-anchor="middle" font-family="Arial" font-size="15" font-weight="bold" fill="#854d0e">X</text><text x="410" y="239" text-anchor="middle" font-family="Arial" font-size="9.5" font-weight="bold" fill="#854d0e">Có thuốc</text><text x="410" y="251" text-anchor="middle" font-family="Arial" font-size="9.5" font-weight="bold" fill="#854d0e">kê đơn?</text><path d="M 360 290 L 388 290" fill="none" stroke="#1e3a8a" stroke-width="1.8" marker-end="url(#arr_seq)"/><rect x="460" y="438" width="140" height="54" rx="6" fill="#ecfdf5" stroke="#059669" stroke-width="1.8"/><text x="530" y="462.5" text-anchor="middle" font-family="Arial" font-size="10.5" font-weight="bold" fill="#0f172a">Thẩm định toa thuốc</text><text x="530" y="476.5" text-anchor="middle" font-family="Arial" font-size="10.5" font-weight="bold" fill="#0f172a">qua Zalo / hình ảnh</text><text x="530" y="505" text-anchor="middle" font-family="Arial" font-size="8.5" fill="#ef4444" font-style="italic" font-weight="bold">Duyệt toa online</text><path d="M 410 312 L 410 465 L 460 465" fill="none" stroke="#1e3a8a" stroke-width="1.8" marker-end="url(#arr_seq)"/><text x="418" y="335" font-family="Arial" font-size="10" font-weight="bold" fill="#16a34a">Có</text><path d="M 650 268 L 672 290 L 650 312 L 628 290 Z" fill="#fef9c3" stroke="#ca8a04" stroke-width="2"/><text x="650" y="295" text-anchor="middle" font-family="Arial" font-size="15" font-weight="bold" fill="#854d0e">X</text><path d="M 432 290 L 628 290" fill="none" stroke="#1e3a8a" stroke-width="1.8" marker-end="url(#arr_seq)"/><text x="445" y="282" font-family="Arial" font-size="10" font-weight="bold" fill="#dc2626">Không</text><path d="M 600 465 L 650 465 L 650 312" fill="none" stroke="#1e3a8a" stroke-width="1.8" marker-end="url(#arr_seq)"/><rect x="700" y="263" width="140" height="54" rx="6" fill="#eff6ff" stroke="#2563eb" stroke-width="1.8"/><text x="770" y="287.5" text-anchor="middle" font-family="Arial" font-size="10.5" font-weight="bold" fill="#0f172a">Gọi điện thoại cho khách</text><text x="770" y="301.5" text-anchor="middle" font-family="Arial" font-size="10.5" font-weight="bold" fill="#0f172a">xác nhận lại đơn hàng</text><text x="770" y="330" text-anchor="middle" font-family="Arial" font-size="8.5" fill="#ef4444" font-style="italic" font-weight="bold">Xác nhận thủ công</text><path d="M 672 290 L 700 290" fill="none" stroke="#1e3a8a" stroke-width="1.8" marker-end="url(#arr_seq)"/><rect x="700" y="83" width="140" height="54" rx="6" fill="#f3e8ff" stroke="#9333ea" stroke-width="1.8"/><text x="770" y="107.5" text-anchor="middle" font-family="Arial" font-size="10.5" font-weight="bold" fill="#0f172a">Nghe điện thoại &amp;</text><text x="770" y="121.5" text-anchor="middle" font-family="Arial" font-size="10.5" font-weight="bold" fill="#0f172a">xác nhận / hủy đơn</text><path d="M 770 263 L 770 137" fill="none" stroke="#475569" stroke-width="1.7" stroke-dasharray="5,4" marker-start="url(#circle_msg)" marker-end="url(#arr_msg)"/><path d="M 900 268 L 922 290 L 900 312 L 878 290 Z" fill="#fef9c3" stroke="#ca8a04" stroke-width="2"/><text x="900" y="295" text-anchor="middle" font-family="Arial" font-size="15" font-weight="bold" fill="#854d0e">X</text><text x="900" y="320.0" text-anchor="middle" font-family="Arial" font-size="9.5" font-weight="bold" fill="#854d0e">Khách đồng</text><text x="900" y="332.0" text-anchor="middle" font-family="Arial" font-size="9.5" font-weight="bold" fill="#854d0e">ý mua?</text><path d="M 840 290 L 878 290" fill="none" stroke="#1e3a8a" stroke-width="1.8" marker-end="url(#arr_seq)"/><rect x="955" y="208" width="130" height="44" rx="6" fill="#fef2f2" stroke="#dc2626" stroke-width="1.8"/><text x="1020" y="227.5" text-anchor="middle" font-family="Arial" font-size="10.5" font-weight="bold" fill="#0f172a">Hủy đơn hàng &amp;</text><text x="1020" y="241.5" text-anchor="middle" font-family="Arial" font-size="10.5" font-weight="bold" fill="#0f172a">ghi nhận lý do hủy</text><circle cx="1130" cy="230" r="17" fill="#fee2e2" stroke="#dc2626" stroke-width="3.5"/><text x="1130" y="258" text-anchor="middle" font-family="Arial" font-size="9" fill="#991b1b" font-weight="bold">Hủy đơn</text><path d="M 900 268 L 900 230 L 955 230" fill="none" stroke="#1e3a8a" stroke-width="1.8" marker-end="url(#arr_seq)"/><text x="912" y="250" font-family="Arial" font-size="10" font-weight="bold" fill="#dc2626">Không</text><path d="M 1085 230 L 1113 230" fill="none" stroke="#1e3a8a" stroke-width="1.8" marker-end="url(#arr_seq)"/><rect x="980" y="293" width="140" height="54" rx="6" fill="#eff6ff" stroke="#2563eb" stroke-width="1.8"/><text x="1050" y="317.5" text-anchor="middle" font-family="Arial" font-size="10.5" font-weight="bold" fill="#0f172a">Kiểm tra tồn kho &amp;</text><text x="1050" y="331.5" text-anchor="middle" font-family="Arial" font-size="10.5" font-weight="bold" fill="#0f172a">phân bổ điểm xuất hàng</text><text x="1050" y="360" text-anchor="middle" font-family="Arial" font-size="8.5" fill="#ef4444" font-style="italic" font-weight="bold">Phân bổ thủ công</text><path d="M 922 290 L 955 290 L 955 320 L 980 320" fill="none" stroke="#1e3a8a" stroke-width="1.8" marker-end="url(#arr_seq)"/><text x="930" y="282" font-family="Arial" font-size="10" font-weight="bold" fill="#16a34a">Có</text><rect x="1150" y="608" width="140" height="54" rx="6" fill="#fff7ed" stroke="#ea580c" stroke-width="1.8"/><text x="1220" y="632.5" text-anchor="middle" font-family="Arial" font-size="10.5" font-weight="bold" fill="#0f172a">In phiếu, nhặt hàng &amp;</text><text x="1220" y="646.5" text-anchor="middle" font-family="Arial" font-size="10.5" font-weight="bold" fill="#0f172a">kiểm tra chất lượng / HSD</text><text x="1220" y="602" text-anchor="middle" font-family="Arial" font-size="8.5" fill="#ef4444" font-style="italic" font-weight="bold">Soạn hàng thủ công</text><path d="M 1120 320 L 1140 320 L 1140 635 L 1150 635" fill="none" stroke="#1e3a8a" stroke-width="1.8" marker-end="url(#arr_seq)"/><rect x="1320" y="608" width="140" height="54" rx="6" fill="#fff7ed" stroke="#ea580c" stroke-width="1.8"/><text x="1390" y="632.5" text-anchor="middle" font-family="Arial" font-size="10.5" font-weight="bold" fill="#0f172a">Đóng gói bưu kiện &amp;</text><text x="1390" y="646.5" text-anchor="middle" font-family="Arial" font-size="10.5" font-weight="bold" fill="#0f172a">tạo mã vận đơn ngoài</text><text x="1390" y="602" text-anchor="middle" font-family="Arial" font-size="8.5" fill="#ef4444" font-style="italic" font-weight="bold">Tạo vận đơn thủ công</text><path d="M 1290 635 L 1320 635" fill="none" stroke="#1e3a8a" stroke-width="1.8" marker-end="url(#arr_seq)"/><circle cx="1490" cy="635" r="17" fill="#fee2e2" stroke="#dc2626" stroke-width="3.5"/><text x="1490" y="663" text-anchor="middle" font-family="Arial" font-size="9" fill="#991b1b" font-weight="bold">Bàn giao</text><text x="1490" y="675" text-anchor="middle" font-family="Arial" font-size="9" fill="#991b1b" font-weight="bold">vận chuyển</text><path d="M 1460 635 L 1473 635" fill="none" stroke="#1e3a8a" stroke-width="1.8" marker-end="url(#arr_seq)"/><circle cx="1260" cy="810" r="17" fill="#dcfce7" stroke="#16a34a" stroke-width="2"/><text x="1260" y="840" text-anchor="middle" font-family="Arial" font-size="9" fill="#15803d" font-weight="bold">Tiếp nhận</text><rect x="1320" y="783" width="140" height="54" rx="6" fill="#fef3c7" stroke="#d97706" stroke-width="1.8"/><text x="1390" y="807.5" text-anchor="middle" font-family="Arial" font-size="10.5" font-weight="bold" fill="#0f172a">Bưu tá nhận bưu kiện</text><text x="1390" y="821.5" text-anchor="middle" font-family="Arial" font-size="10.5" font-weight="bold" fill="#0f172a">&amp; quét mã nhập hệ thống</text><path d="M 1277 810 L 1320 810" fill="none" stroke="#1e3a8a" stroke-width="1.8" marker-end="url(#arr_seq)"/><path d="M 1390 662 L 1390 783" fill="none" stroke="#475569" stroke-width="1.7" stroke-dasharray="5,4" marker-start="url(#circle_msg)" marker-end="url(#arr_msg)"/><rect x="1490" y="783" width="140" height="54" rx="6" fill="#fef3c7" stroke="#d97706" stroke-width="1.8"/><text x="1560" y="807.5" text-anchor="middle" font-family="Arial" font-size="10.5" font-weight="bold" fill="#0f172a">Vận chuyển hàng &amp;</text><text x="1560" y="821.5" text-anchor="middle" font-family="Arial" font-size="10.5" font-weight="bold" fill="#0f172a">giao tận nơi cho khách</text><path d="M 1460 810 L 1490 810" fill="none" stroke="#1e3a8a" stroke-width="1.8" marker-end="url(#arr_seq)"/><circle cx="1710" cy="810" r="17" fill="#fee2e2" stroke="#dc2626" stroke-width="3.5"/><text x="1710" y="838" text-anchor="middle" font-family="Arial" font-size="9" fill="#991b1b" font-weight="bold">Hoàn tất</text><text x="1710" y="850" text-anchor="middle" font-family="Arial" font-size="9" fill="#991b1b" font-weight="bold">đối soát</text><path d="M 1630 810 L 1693 810" fill="none" stroke="#1e3a8a" stroke-width="1.8" marker-end="url(#arr_seq)"/><rect x="1490" y="83" width="140" height="54" rx="6" fill="#f3e8ff" stroke="#9333ea" stroke-width="1.8"/><text x="1560" y="107.5" text-anchor="middle" font-family="Arial" font-size="10.5" font-weight="bold" fill="#0f172a">Nhận thuốc, kiểm tra</text><text x="1560" y="121.5" text-anchor="middle" font-family="Arial" font-size="10.5" font-weight="bold" fill="#0f172a">&amp; thanh toán tiền (COD)</text><path d="M 840 110 L 1490 110" fill="none" stroke="#1e3a8a" stroke-width="1.8" marker-end="url(#arr_seq)"/><path d="M 1560 783 L 1560 137" fill="none" stroke="#475569" stroke-width="1.7" stroke-dasharray="5,4" marker-start="url(#circle_msg)" marker-end="url(#arr_msg)"/><circle cx="1710" cy="110" r="17" fill="#fee2e2" stroke="#dc2626" stroke-width="3.5"/><text x="1710" y="138" text-anchor="middle" font-family="Arial" font-size="9" fill="#991b1b" font-weight="bold">Hoàn thành</text><text x="1710" y="150" text-anchor="middle" font-family="Arial" font-size="9" fill="#991b1b" font-weight="bold">mua hàng</text><path d="M 1630 110 L 1693 110" fill="none" stroke="#1e3a8a" stroke-width="1.8" marker-end="url(#arr_seq)"/><text x="1755" y="905" text-anchor="end" font-family="Arial" font-size="11.5" font-style="italic" fill="#94a3b8">Hình 4.4: Sơ đồ BPMN AS-IS – Quy trình bán thuốc online (FPT Long Châu)</text>
</svg>