<?xml version="1.0" encoding="UTF-8"?>
<svg xmlns="http://www.w3.org/2000/svg" width="1720" height="890" viewBox="0 0 1720 890">
<defs>
      <!-- Sequence flow marker (Solid dark blue) -->
      <marker id="arr_seq" markerWidth="8" markerHeight="6" refX="7" refY="3" orient="auto">
        <path d="M0,0 L8,3 L0,6 Z" fill="#1e3a8a"/>
      </marker>
      <!-- Message flow marker (Open stroke grey) -->
      <marker id="arr_msg" markerWidth="9" markerHeight="7" refX="8" refY="3.5" orient="auto">
        <path d="M1,1 L8,3.5 L1,6" fill="none" stroke="#475569" stroke-width="1.6"/>
      </marker>
      <!-- Message flow start circle -->
      <marker id="circle_msg" markerWidth="6" markerHeight="6" refX="3" refY="3" orient="auto">
        <circle cx="3" cy="3" r="2.5" fill="#ffffff" stroke="#475569" stroke-width="1.3"/>
      </marker>
    </defs><rect x="0" y="0" width="1720" height="890" fill="#ffffff"/><text x="860" y="32" text-anchor="middle" font-family="Arial" font-size="19" font-weight="bold" fill="#0f172a">SƠ ĐỒ BPMN 2.0 (AS-IS) – QUY TRÌNH QUẢN LÝ CHẤT LƯỢNG DƯỢC PHẨM</text><rect x="15" y="50" width="1690" height="600" fill="#ffffff" stroke="#1e293b" stroke-width="2"/><rect x="15" y="50" width="40" height="600" fill="#1e293b"/><text x="35" y="350" text-anchor="middle" font-family="Arial" font-size="12.5" font-weight="bold" fill="#ffffff" transform="rotate(-90 35 350)">CÔNG TY CỔ PHẦN DƯỢC PHẨM FPT LONG CHÂU</text><rect x="55" y="50" width="1650" height="200" fill="#ffffff" stroke="#cbd5e1" stroke-width="1"/><rect x="55" y="50" width="110" height="200" fill="#f8fafc" stroke="#cbd5e1" stroke-width="1"/><text x="110" y="146.5" text-anchor="middle" font-family="Arial" font-size="10.5" font-weight="bold" fill="#334155">NHÂN VIÊN KHO</text><text x="110" y="161.5" text-anchor="middle" font-family="Arial" font-size="10.5" font-weight="bold" fill="#334155">(TIẾP NHẬN)</text><rect x="55" y="250" width="1650" height="200" fill="#fafafa" stroke="#cbd5e1" stroke-width="1"/><rect x="55" y="250" width="110" height="200" fill="#f8fafc" stroke="#cbd5e1" stroke-width="1"/><text x="110" y="346.5" text-anchor="middle" font-family="Arial" font-size="10.5" font-weight="bold" fill="#334155">DƯỢC SĨ</text><text x="110" y="361.5" text-anchor="middle" font-family="Arial" font-size="10.5" font-weight="bold" fill="#334155">PHỤ TRÁCH CHẤT LƯỢNG</text><rect x="55" y="450" width="1650" height="200" fill="#ffffff" stroke="#cbd5e1" stroke-width="1"/><rect x="55" y="450" width="110" height="200" fill="#f8fafc" stroke="#cbd5e1" stroke-width="1"/><text x="110" y="546.5" text-anchor="middle" font-family="Arial" font-size="10.5" font-weight="bold" fill="#334155">BỘ PHẬN QA</text><text x="110" y="561.5" text-anchor="middle" font-family="Arial" font-size="10.5" font-weight="bold" fill="#334155">(ĐẢM BẢO CHẤT LƯỢNG)</text><rect x="15" y="700" width="1690" height="150" fill="#ffffff" stroke="#1e293b" stroke-width="2"/><rect x="15" y="700" width="40" height="150" fill="#1e293b"/><text x="35" y="775" text-anchor="middle" font-family="Arial" font-size="12.5" font-weight="bold" fill="#ffffff" transform="rotate(-90 35 775)">ĐỐI TÁC NGOÀI</text><rect x="55" y="700" width="1650" height="150" fill="#ffffff" stroke="#cbd5e1" stroke-width="1"/><rect x="55" y="700" width="110" height="150" fill="#f8fafc" stroke="#cbd5e1" stroke-width="1"/><text x="110" y="771.5" text-anchor="middle" font-family="Arial" font-size="10.5" font-weight="bold" fill="#334155">NHÀ CUNG CẤP</text><text x="110" y="786.5" text-anchor="middle" font-family="Arial" font-size="10.5" font-weight="bold" fill="#334155">(HÃNG DƯỢC PHẨM)</text><circle cx="180" cy="775" r="17" fill="#dcfce7" stroke="#16a34a" stroke-width="2"/><text x="180" y="805" text-anchor="middle" font-family="Arial" font-size="9" fill="#15803d" font-weight="bold">Bắt đầu</text><rect x="230" y="748" width="140" height="54" rx="6" fill="#f3e8ff" stroke="#7e22ce" stroke-width="1.8"/><text x="300" y="772.5" text-anchor="middle" font-family="Arial" font-size="10.5" font-weight="bold" fill="#0f172a">Giao lô hàng &amp;</text><text x="300" y="786.5" text-anchor="middle" font-family="Arial" font-size="10.5" font-weight="bold" fill="#0f172a">bàn giao chứng từ CO/CQ</text><path d="M 197 775 L 230 775" fill="none" stroke="#1e3a8a" stroke-width="1.8" marker-end="url(#arr_seq)"/><circle cx="180" cy="150" r="17" fill="#dcfce7" stroke="#16a34a" stroke-width="2"/><text x="180" y="180" text-anchor="middle" font-family="Arial" font-size="9" fill="#15803d" font-weight="bold">Nhận hàng</text><rect x="230" y="123" width="140" height="54" rx="6" fill="#eff6ff" stroke="#2563eb" stroke-width="1.8"/><text x="300" y="147.5" text-anchor="middle" font-family="Arial" font-size="10.5" font-weight="bold" fill="#0f172a">Tiếp nhận lô hàng &amp;</text><text x="300" y="161.5" text-anchor="middle" font-family="Arial" font-size="10.5" font-weight="bold" fill="#0f172a">chứng từ thực tế</text><path d="M 197 150 L 230 150" fill="none" stroke="#1e3a8a" stroke-width="1.8" marker-end="url(#arr_seq)"/><path d="M 300 748 L 300 177" fill="none" stroke="#475569" stroke-width="1.7" stroke-dasharray="5,4" marker-start="url(#circle_msg)" marker-end="url(#arr_msg)"/><rect x="400" y="323" width="140" height="54" rx="6" fill="#ecfdf5" stroke="#059669" stroke-width="1.8"/><text x="470" y="347.5" text-anchor="middle" font-family="Arial" font-size="10.5" font-weight="bold" fill="#0f172a">Kiểm tra tính hợp lệ</text><text x="470" y="361.5" text-anchor="middle" font-family="Arial" font-size="10.5" font-weight="bold" fill="#0f172a">chứng từ CO/CQ</text><rect x="570" y="323" width="140" height="54" rx="6" fill="#ecfdf5" stroke="#059669" stroke-width="1.8"/><text x="640" y="347.5" text-anchor="middle" font-family="Arial" font-size="10.5" font-weight="bold" fill="#0f172a">Kiểm tra ngoại quan,</text><text x="640" y="361.5" text-anchor="middle" font-family="Arial" font-size="10.5" font-weight="bold" fill="#0f172a">bao bì &amp; hạn dùng</text><rect x="740" y="323" width="140" height="54" rx="6" fill="#ecfdf5" stroke="#059669" stroke-width="1.8"/><text x="810" y="347.5" text-anchor="middle" font-family="Arial" font-size="10.5" font-weight="bold" fill="#0f172a">Kiểm tra nhiệt độ &amp;</text><text x="810" y="361.5" text-anchor="middle" font-family="Arial" font-size="10.5" font-weight="bold" fill="#0f172a">đk bảo quản thực tế</text><rect x="910" y="323" width="140" height="54" rx="6" fill="#ecfdf5" stroke="#059669" stroke-width="1.8"/><text x="980" y="347.5" text-anchor="middle" font-family="Arial" font-size="10.5" font-weight="bold" fill="#0f172a">Ghi chép sổ</text><text x="980" y="361.5" text-anchor="middle" font-family="Arial" font-size="10.5" font-weight="bold" fill="#0f172a">kiểm soát chất lượng</text><text x="980" y="317" text-anchor="middle" font-family="Arial" font-size="8.5" fill="#ef4444" font-style="italic" font-weight="bold">Ghi chép sổ tay</text><path d="M 1120 328 L 1142 350 L 1120 372 L 1098 350 Z" fill="#fef9c3" stroke="#ca8a04" stroke-width="2"/><text x="1120" y="355" text-anchor="middle" font-family="Arial" font-size="15" font-weight="bold" fill="#854d0e">X</text><text x="1120" y="380.0" text-anchor="middle" font-family="Arial" font-size="9" font-weight="bold" fill="#854d0e">Chất lượng</text><text x="1120" y="392.0" text-anchor="middle" font-family="Arial" font-size="9" font-weight="bold" fill="#854d0e">đạt chuẩn?</text><path d="M 370 150 L 385 150 L 385 350 L 400 350" fill="none" stroke="#1e3a8a" stroke-width="1.8" marker-end="url(#arr_seq)"/><path d="M 540 350 L 570 350" fill="none" stroke="#1e3a8a" stroke-width="1.8" marker-end="url(#arr_seq)"/><path d="M 710 350 L 740 350" fill="none" stroke="#1e3a8a" stroke-width="1.8" marker-end="url(#arr_seq)"/><path d="M 880 350 L 910 350" fill="none" stroke="#1e3a8a" stroke-width="1.8" marker-end="url(#arr_seq)"/><path d="M 1050 350 L 1098 350" fill="none" stroke="#1e3a8a" stroke-width="1.8" marker-end="url(#arr_seq)"/><rect x="1190" y="123" width="140" height="54" rx="6" fill="#eff6ff" stroke="#2563eb" stroke-width="1.8"/><text x="1260" y="147.5" text-anchor="middle" font-family="Arial" font-size="10.5" font-weight="bold" fill="#0f172a">Chuyển vào lưu trữ &amp;</text><text x="1260" y="161.5" text-anchor="middle" font-family="Arial" font-size="10.5" font-weight="bold" fill="#0f172a">xác nhận nhập kho</text><circle cx="1410" cy="150" r="17" fill="#fee2e2" stroke="#dc2626" stroke-width="3.5"/><text x="1410" y="178" text-anchor="middle" font-family="Arial" font-size="9" fill="#991b1b" font-weight="bold">Hoàn tất nhập kho</text><text x="1410" y="190" text-anchor="middle" font-family="Arial" font-size="9" fill="#991b1b" font-weight="bold">đạt chuẩn GPP</text><path d="M 1120 328 L 1120 150 L 1190 150" fill="none" stroke="#1e3a8a" stroke-width="1.8" marker-end="url(#arr_seq)"/><text x="1130" y="322" font-family="Arial" font-size="10" font-weight="bold" fill="#16a34a">Có</text><path d="M 1330 150 L 1393 150" fill="none" stroke="#1e3a8a" stroke-width="1.8" marker-end="url(#arr_seq)"/><rect x="1190" y="323" width="140" height="54" rx="6" fill="#fef2f2" stroke="#dc2626" stroke-width="1.8"/><text x="1260" y="347.5" text-anchor="middle" font-family="Arial" font-size="10.5" font-weight="bold" fill="#0f172a">Lập biên bản</text><text x="1260" y="361.5" text-anchor="middle" font-family="Arial" font-size="10.5" font-weight="bold" fill="#0f172a">sự cố chất lượng</text><text x="1260" y="317" text-anchor="middle" font-family="Arial" font-size="8.5" fill="#ef4444" font-style="italic" font-weight="bold">Biên bản giấy</text><path d="M 1142 350 L 1190 350" fill="none" stroke="#1e3a8a" stroke-width="1.8" marker-end="url(#arr_seq)"/><text x="1148" y="340" font-family="Arial" font-size="10" font-weight="bold" fill="#dc2626">Không</text><rect x="1470" y="123" width="140" height="54" rx="6" fill="#fff1f2" stroke="#e11d48" stroke-width="1.8"/><text x="1540" y="147.5" text-anchor="middle" font-family="Arial" font-size="10.5" font-weight="bold" fill="#0f172a">Chuyển hàng vào</text><text x="1540" y="161.5" text-anchor="middle" font-family="Arial" font-size="10.5" font-weight="bold" fill="#0f172a">khu biệt trữ cách ly</text><circle cx="1660" cy="150" r="17" fill="#fee2e2" stroke="#dc2626" stroke-width="3.5"/><text x="1660" y="178" text-anchor="middle" font-family="Arial" font-size="9" fill="#991b1b" font-weight="bold">Hàng cách ly</text><text x="1660" y="190" text-anchor="middle" font-family="Arial" font-size="9" fill="#991b1b" font-weight="bold">chờ xử lý</text><path d="M 1330 350 L 1440 350 L 1440 150 L 1470 150" fill="none" stroke="#1e3a8a" stroke-width="1.8" marker-end="url(#arr_seq)"/><path d="M 1610 150 L 1643 150" fill="none" stroke="#1e3a8a" stroke-width="1.8" marker-end="url(#arr_seq)"/><rect x="1280" y="523" width="140" height="54" rx="6" fill="#fff7ed" stroke="#c2410c" stroke-width="1.8"/><text x="1350" y="547.5" text-anchor="middle" font-family="Arial" font-size="10.5" font-weight="bold" fill="#0f172a">Tiếp nhận biên bản &amp;</text><text x="1350" y="561.5" text-anchor="middle" font-family="Arial" font-size="10.5" font-weight="bold" fill="#0f172a">xác nhận sự cố</text><rect x="1440" y="523" width="140" height="54" rx="6" fill="#fff7ed" stroke="#c2410c" stroke-width="1.8"/><text x="1510" y="547.5" text-anchor="middle" font-family="Arial" font-size="10.5" font-weight="bold" fill="#0f172a">Gửi thông báo &amp;</text><text x="1510" y="561.5" text-anchor="middle" font-family="Arial" font-size="10.5" font-weight="bold" fill="#0f172a">yêu cầu đổi/trả hàng</text><circle cx="1660" cy="550" r="17" fill="#fee2e2" stroke="#dc2626" stroke-width="3.5"/><text x="1660" y="578" text-anchor="middle" font-family="Arial" font-size="9" fill="#991b1b" font-weight="bold">Chờ nhà cung cấp</text><text x="1660" y="590" text-anchor="middle" font-family="Arial" font-size="9" fill="#991b1b" font-weight="bold">xử lý đổi trả</text><path d="M 1260 377 L 1260 550 L 1280 550" fill="none" stroke="#1e3a8a" stroke-width="1.8" marker-end="url(#arr_seq)"/><path d="M 1420 550 L 1440 550" fill="none" stroke="#1e3a8a" stroke-width="1.8" marker-end="url(#arr_seq)"/><path d="M 1580 550 L 1643 550" fill="none" stroke="#1e3a8a" stroke-width="1.8" marker-end="url(#arr_seq)"/><rect x="1440" y="748" width="140" height="54" rx="6" fill="#f3e8ff" stroke="#7e22ce" stroke-width="1.8"/><text x="1510" y="772.5" text-anchor="middle" font-family="Arial" font-size="10.5" font-weight="bold" fill="#0f172a">Tiếp nhận khiếu nại &amp;</text><text x="1510" y="786.5" text-anchor="middle" font-family="Arial" font-size="10.5" font-weight="bold" fill="#0f172a">xử lý thu hồi / đổi</text><circle cx="1660" cy="775" r="17" fill="#fee2e2" stroke="#dc2626" stroke-width="3.5"/><text x="1660" y="803" text-anchor="middle" font-family="Arial" font-size="9" fill="#991b1b" font-weight="bold">Hoàn tất</text><text x="1660" y="815" text-anchor="middle" font-family="Arial" font-size="9" fill="#991b1b" font-weight="bold">đổi trả</text><path d="M 1510 577 L 1510 748" fill="none" stroke="#475569" stroke-width="1.7" stroke-dasharray="5,4" marker-start="url(#circle_msg)" marker-end="url(#arr_msg)"/><path d="M 1580 775 L 1643 775" fill="none" stroke="#1e3a8a" stroke-width="1.8" marker-end="url(#arr_seq)"/><text x="1695" y="875" text-anchor="end" font-family="Arial" font-size="11.5" font-style="italic" fill="#94a3b8">Hình 4.2: Sơ đồ BPMN AS-IS – Quy trình quản lý chất lượng (FPT Long Châu)</text>
</svg>