<svg xmlns="http://www.w3.org/2000/svg" viewBox="0 0 2200 960" width="2200" height="960">
<defs><marker id="arr" markerWidth="8" markerHeight="6" refX="7" refY="3" orient="auto"><path d="M0 0L8 3L0 6z" fill="#1e3a5f"/></marker>
<marker id="msg_arr" markerWidth="9" markerHeight="7" refX="8" refY="3.5" orient="auto"><path d="M0 0L8 3.5L0 7z" fill="white" stroke="#64748b" stroke-width="1.2"/></marker></defs>
<rect x="0" y="0" width="2200" height="960" fill="#f8fafc"/>
<text x="1100" y="32" text-anchor="middle" font-family="Arial" font-size="18" font-weight="bold" fill="#0f172a">BPMN 2.0 AS-IS – QUY TRÌNH QUẢN LÝ CHẤT LƯỢNG DƯỢC GPP / GDP (FPT LONG CHÂU)</text>
<text x="1100" y="50" text-anchor="middle" font-family="Arial" font-size="11" font-style="italic" fill="#475569">Chuẩn hóa 8 Cổng điều kiện (Gateways &gt; 7) • Duy nhất 1 Sự kiện Bắt đầu (1 Start Event) • Khắc phục lỗi đa sự kiện</text>
<rect x="0" y="60" width="40" height="610" fill="#cbd5e1" stroke="#1e293b" stroke-width="2.5"/>
<text x="-365" y="25" transform="rotate(-90)" text-anchor="middle" font-family="Arial" font-size="12" font-weight="bold" fill="#0f172a" letter-spacing="2">FPT LONG CHÂU (QA/QC)</text>
<rect x="40" y="60" width="2160" height="610" fill="none" stroke="#1e293b" stroke-width="2.5"/>
<rect x="40" y="60" width="90" height="610" fill="#e2e8f0" stroke="#1e293b" stroke-width="1.5"/>
<rect x="130" y="60" width="2070" height="150" fill="#f8fafc" opacity="0.6"/>
<text x="85" y="132.0" text-anchor="middle" font-family="Arial" font-size="10" font-weight="bold" fill="#1e293b">DƯỢC SĨ PHỤ TRÁCH</text>
<text x="85" y="146.0" text-anchor="middle" font-family="Arial" font-size="10" font-weight="bold" fill="#1e293b">CHẤT LƯỢNG (QA)</text>
<line x1="40" y1="210" x2="2200" y2="210" stroke="#94a3b8" stroke-width="1.2" stroke-dasharray="4,2"/>
<rect x="130" y="210" width="2070" height="160" fill="#f0fdf4" opacity="0.6"/>
<text x="85" y="287.0" text-anchor="middle" font-family="Arial" font-size="10" font-weight="bold" fill="#1e293b">NHÂN VIÊN LẤY MẪU</text>
<text x="85" y="301.0" text-anchor="middle" font-family="Arial" font-size="10" font-weight="bold" fill="#1e293b">& KIỂM KHO</text>
<line x1="40" y1="370" x2="2200" y2="370" stroke="#94a3b8" stroke-width="1.2" stroke-dasharray="4,2"/>
<rect x="130" y="370" width="2070" height="155" fill="#fffbeb" opacity="0.6"/>
<text x="85" y="444.0" text-anchor="middle" font-family="Arial" font-size="10" font-weight="bold" fill="#1e293b">PHÒNG KIỂM NGHIỆM</text>
<text x="85" y="458.0" text-anchor="middle" font-family="Arial" font-size="10" font-weight="bold" fill="#1e293b">TRUNG TÂM (LAB)</text>
<line x1="40" y1="525" x2="2200" y2="525" stroke="#94a3b8" stroke-width="1.2" stroke-dasharray="4,2"/>
<rect x="130" y="525" width="2070" height="145" fill="#fdf2f8" opacity="0.6"/>
<text x="85" y="594.0" text-anchor="middle" font-family="Arial" font-size="10" font-weight="bold" fill="#1e293b">TRƯỞNG PHÒNG QA</text>
<text x="85" y="608.0" text-anchor="middle" font-family="Arial" font-size="10" font-weight="bold" fill="#1e293b">& BAN GIÁM ĐỐC</text>
<rect x="0" y="750" width="40" height="160" fill="#cbd5e1" stroke="#1e293b" stroke-width="2.5"/>
<text x="-830" y="25" transform="rotate(-90)" text-anchor="middle" font-family="Arial" font-size="12" font-weight="bold" fill="#0f172a" letter-spacing="2">CƠ QUAN QUẢN LÝ / VIỆN KIỂM NGHIỆM</text>
<rect x="40" y="750" width="2160" height="160" fill="none" stroke="#1e293b" stroke-width="2.5"/>
<rect x="40" y="750" width="90" height="160" fill="#e2e8f0" stroke="#1e293b" stroke-width="1.5"/>
<rect x="130" y="750" width="2070" height="160" fill="#faf5ff" opacity="0.6"/>
<text x="85" y="827.0" text-anchor="middle" font-family="Arial" font-size="10" font-weight="bold" fill="#1e293b">VIỆN KIỂM NGHIỆM</text>
<text x="85" y="841.0" text-anchor="middle" font-family="Arial" font-size="10" font-weight="bold" fill="#1e293b">& CỤC QUẢN LÝ DƯỢC</text>
<circle cx="160" cy="135" r="16" fill="#bbf7d0" stroke="#15803d" stroke-width="2.2"/>
<text x="160" y="163" text-anchor="middle" font-family="Arial" font-size="9" font-weight="bold" fill="#166534">Nhận lô thuốc</text>
<rect x="200" y="111" width="120" height="48" rx="6" fill="#dbeafe" stroke="#2563ab" stroke-width="1.8"/>
<text x="260" y="132.5" text-anchor="middle" font-family="Arial" font-size="9.5" fill="#0f172a">Tiếp nhận thông báo</text>
<text x="260" y="145.5" text-anchor="middle" font-family="Arial" font-size="9.5" fill="#0f172a">&amp; hồ sơ lô thuốc</text>
<text x="260" y="172" text-anchor="middle" font-family="Arial" font-size="8" fill="#dc2626" font-style="italic" font-weight="bold">Hồ sơ giấy</text>
<path d="M 176,135 L 200,135" fill="none" stroke="#1e3a5f" stroke-width="1.6" marker-end="url(#arr)"/>
<polygon points="370,115 390,135 370,155 350,135" fill="#fef08a" stroke="#b45309" stroke-width="2"/>
<text x="370" y="139" text-anchor="middle" font-family="Arial" font-size="11" font-weight="bold" fill="#b45309">×</text>
<text x="370" y="109" text-anchor="middle" font-family="Arial" font-size="9" font-weight="bold" fill="#b45309">G1</text>
<text x="370" y="162.5" text-anchor="middle" font-family="Arial" font-size="8.5" font-weight="bold" fill="#78350f">Kiểm soát</text>
<text x="370" y="173.5" text-anchor="middle" font-family="Arial" font-size="8.5" font-weight="bold" fill="#78350f">đặc biệt?</text>
<path d="M 320,135 L 350,135" fill="none" stroke="#1e3a5f" stroke-width="1.6" marker-end="url(#arr)"/>
<rect x="310" y="56" width="120" height="48" rx="6" fill="#fef3c7" stroke="#d97706" stroke-width="1.8"/>
<text x="370" y="77.5" text-anchor="middle" font-family="Arial" font-size="9.5" fill="#0f172a">Kích hoạt giám sát</text>
<text x="370" y="90.5" text-anchor="middle" font-family="Arial" font-size="9.5" fill="#0f172a">kép (Hạn/Sổ riêng)</text>
<path d="M 370,115 L 370,104" fill="none" stroke="#1e3a5f" stroke-width="1.6" marker-end="url(#arr)"/>
<rect x="372" y="102" width="36" height="16" rx="3" fill="#ffffff" stroke="#e2e8f0" stroke-width="0.8"/>
<text x="390" y="113.5" text-anchor="middle" font-family="Arial" font-size="9" font-weight="bold" fill="#15803d">Có</text>
<rect x="430" y="111" width="120" height="48" rx="6" fill="#dbeafe" stroke="#2563ab" stroke-width="1.8"/>
<text x="490" y="132.5" text-anchor="middle" font-family="Arial" font-size="9.5" fill="#0f172a">Thẩm định hồ sơ</text>
<text x="490" y="145.5" text-anchor="middle" font-family="Arial" font-size="9.5" fill="#0f172a">pháp lý &amp; COA</text>
<text x="490" y="172" text-anchor="middle" font-family="Arial" font-size="8" fill="#dc2626" font-style="italic" font-weight="bold">Kiểm thủ công</text>
<path d="M 390,135 L 430,135" fill="none" stroke="#1e3a5f" stroke-width="1.6" marker-end="url(#arr)"/>
<rect x="392" y="117" width="36" height="16" rx="3" fill="#ffffff" stroke="#e2e8f0" stroke-width="0.8"/>
<text x="410" y="128.5" text-anchor="middle" font-family="Arial" font-size="9" font-weight="bold" fill="#dc2626">Không</text>
<path d="M 430,80 L 490,80 L 490,111" fill="none" stroke="#1e3a5f" stroke-width="1.6" marker-end="url(#arr)"/>
<polygon points="600,115 620,135 600,155 580,135" fill="#fef08a" stroke="#b45309" stroke-width="2"/>
<text x="600" y="139" text-anchor="middle" font-family="Arial" font-size="11" font-weight="bold" fill="#b45309">×</text>
<text x="600" y="109" text-anchor="middle" font-family="Arial" font-size="9" font-weight="bold" fill="#b45309">G2</text>
<text x="600" y="162.5" text-anchor="middle" font-family="Arial" font-size="8.5" font-weight="bold" fill="#78350f">Hồ sơ COA</text>
<text x="600" y="173.5" text-anchor="middle" font-family="Arial" font-size="8.5" font-weight="bold" fill="#78350f">hợp lệ?</text>
<path d="M 550,135 L 580,135" fill="none" stroke="#1e3a5f" stroke-width="1.6" marker-end="url(#arr)"/>
<rect x="540" y="56" width="120" height="48" rx="6" fill="#fee2e2" stroke="#dc2626" stroke-width="1.8"/>
<text x="600" y="77.5" text-anchor="middle" font-family="Arial" font-size="9.5" fill="#0f172a">Từ chối tiếp nhận</text>
<text x="600" y="90.5" text-anchor="middle" font-family="Arial" font-size="9.5" fill="#0f172a">&amp; trả hồ sơ NCC</text>
<circle cx="700" cy="80" r="16" fill="#fecaca" stroke="#dc2626" stroke-width="3.5"/>
<text x="700" y="108" text-anchor="middle" font-family="Arial" font-size="9" font-weight="bold" fill="#991b1b">Từ chối lô</text>
<path d="M 600,115 L 600,104" fill="none" stroke="#1e3a5f" stroke-width="1.6" marker-end="url(#arr)"/>
<rect x="600" y="102" width="36" height="16" rx="3" fill="#ffffff" stroke="#e2e8f0" stroke-width="0.8"/>
<text x="618" y="113.5" text-anchor="middle" font-family="Arial" font-size="9" font-weight="bold" fill="#dc2626">Sai</text>
<path d="M 660,80 L 684,80" fill="none" stroke="#1e3a5f" stroke-width="1.6" marker-end="url(#arr)"/>
<rect x="540" y="266" width="120" height="48" rx="6" fill="#f1f5f9" stroke="#2563ab" stroke-width="1.8"/>
<text x="600" y="287.5" text-anchor="middle" font-family="Arial" font-size="9.5" fill="#0f172a">Đo nhiệt độ xe lạnh</text>
<text x="600" y="300.5" text-anchor="middle" font-family="Arial" font-size="9.5" fill="#0f172a">&amp; đọc data logger</text>
<text x="600" y="327" text-anchor="middle" font-family="Arial" font-size="8" fill="#dc2626" font-style="italic" font-weight="bold">Nhiệt kế cơ</text>
<path d="M 600,155 L 600,266" fill="none" stroke="#1e3a5f" stroke-width="1.6" marker-end="url(#arr)"/>
<rect x="602" y="202" width="36" height="16" rx="3" fill="#ffffff" stroke="#e2e8f0" stroke-width="0.8"/>
<text x="620" y="213.5" text-anchor="middle" font-family="Arial" font-size="9" font-weight="bold" fill="#15803d">Đạt</text>
<polygon points="720,270 740,290 720,310 700,290" fill="#fef08a" stroke="#b45309" stroke-width="2"/>
<text x="720" y="294" text-anchor="middle" font-family="Arial" font-size="11" font-weight="bold" fill="#b45309">×</text>
<text x="720" y="264" text-anchor="middle" font-family="Arial" font-size="9" font-weight="bold" fill="#b45309">G3</text>
<text x="720" y="317.5" text-anchor="middle" font-family="Arial" font-size="8.5" font-weight="bold" fill="#78350f">Nhiệt độ GDP</text>
<text x="720" y="328.5" text-anchor="middle" font-family="Arial" font-size="8.5" font-weight="bold" fill="#78350f">2-8°C đạt?</text>
<path d="M 660,290 L 700,290" fill="none" stroke="#1e3a5f" stroke-width="1.6" marker-end="url(#arr)"/>
<rect x="660" y="111" width="120" height="48" rx="6" fill="#fee2e2" stroke="#dc2626" stroke-width="1.8"/>
<text x="720" y="132.5" text-anchor="middle" font-family="Arial" font-size="9.5" fill="#0f172a">Lập biên bản cách ly</text>
<text x="720" y="145.5" text-anchor="middle" font-family="Arial" font-size="9.5" fill="#0f172a">do vi phạm nhiệt</text>
<circle cx="830" cy="135" r="16" fill="#fecaca" stroke="#dc2626" stroke-width="3.5"/>
<text x="830" y="163" text-anchor="middle" font-family="Arial" font-size="9" font-weight="bold" fill="#991b1b">Cách ly GDP</text>
<path d="M 720,270 L 720,159" fill="none" stroke="#1e3a5f" stroke-width="1.6" marker-end="url(#arr)"/>
<rect x="722" y="202" width="36" height="16" rx="3" fill="#ffffff" stroke="#e2e8f0" stroke-width="0.8"/>
<text x="740" y="213.5" text-anchor="middle" font-family="Arial" font-size="9" font-weight="bold" fill="#dc2626">Hỏng</text>
<path d="M 780,135 L 814,135" fill="none" stroke="#1e3a5f" stroke-width="1.6" marker-end="url(#arr)"/>
<rect x="780" y="266" width="120" height="48" rx="6" fill="#f1f5f9" stroke="#2563ab" stroke-width="1.8"/>
<text x="840" y="287.5" text-anchor="middle" font-family="Arial" font-size="9.5" fill="#0f172a">Lấy mẫu ngẫu nhiên</text>
<text x="840" y="300.5" text-anchor="middle" font-family="Arial" font-size="9.5" fill="#0f172a">&amp; kiểm ngoại quan</text>
<text x="840" y="327" text-anchor="middle" font-family="Arial" font-size="8" fill="#dc2626" font-style="italic" font-weight="bold">Quan sát mắt</text>
<path d="M 740,290 L 780,290" fill="none" stroke="#1e3a5f" stroke-width="1.6" marker-end="url(#arr)"/>
<rect x="742" y="272" width="36" height="16" rx="3" fill="#ffffff" stroke="#e2e8f0" stroke-width="0.8"/>
<text x="760" y="283.5" text-anchor="middle" font-family="Arial" font-size="9" font-weight="bold" fill="#15803d">Đạt</text>
<polygon points="950,270 970,290 950,310 930,290" fill="#fef08a" stroke="#b45309" stroke-width="2"/>
<text x="950" y="294" text-anchor="middle" font-family="Arial" font-size="11" font-weight="bold" fill="#b45309">×</text>
<text x="950" y="264" text-anchor="middle" font-family="Arial" font-size="9" font-weight="bold" fill="#b45309">G4</text>
<text x="950" y="317.5" text-anchor="middle" font-family="Arial" font-size="8.5" font-weight="bold" fill="#78350f">Bao bì, tem</text>
<text x="950" y="328.5" text-anchor="middle" font-family="Arial" font-size="8.5" font-weight="bold" fill="#78350f">đạt chuẩn?</text>
<path d="M 900,290 L 930,290" fill="none" stroke="#1e3a5f" stroke-width="1.6" marker-end="url(#arr)"/>
<rect x="890" y="111" width="120" height="48" rx="6" fill="#fee2e2" stroke="#dc2626" stroke-width="1.8"/>
<text x="950" y="132.5" text-anchor="middle" font-family="Arial" font-size="9.5" fill="#0f172a">Lập biên bản hủy mẫu</text>
<text x="950" y="145.5" text-anchor="middle" font-family="Arial" font-size="9.5" fill="#0f172a">&amp; trả lô hỏng</text>
<circle cx="1060" cy="135" r="16" fill="#fecaca" stroke="#dc2626" stroke-width="3.5"/>
<text x="1060" y="163" text-anchor="middle" font-family="Arial" font-size="9" font-weight="bold" fill="#991b1b">Lỗi bao bì</text>
<path d="M 950,270 L 950,159" fill="none" stroke="#1e3a5f" stroke-width="1.6" marker-end="url(#arr)"/>
<rect x="952" y="202" width="36" height="16" rx="3" fill="#ffffff" stroke="#e2e8f0" stroke-width="0.8"/>
<text x="970" y="213.5" text-anchor="middle" font-family="Arial" font-size="9" font-weight="bold" fill="#dc2626">Lỗi</text>
<path d="M 1010,135 L 1044,135" fill="none" stroke="#1e3a5f" stroke-width="1.6" marker-end="url(#arr)"/>
<rect x="890" y="423" width="120" height="48" rx="6" fill="#f1f5f9" stroke="#2563ab" stroke-width="1.8"/>
<text x="950" y="444.5" text-anchor="middle" font-family="Arial" font-size="9.5" fill="#0f172a">Tiếp nhận mẫu thử</text>
<text x="950" y="457.5" text-anchor="middle" font-family="Arial" font-size="9.5" fill="#0f172a">vào phòng Lab</text>
<text x="950" y="484" text-anchor="middle" font-family="Arial" font-size="8" fill="#dc2626" font-style="italic" font-weight="bold">Sổ giao nhận</text>
<path d="M 950,310 L 950,423" fill="none" stroke="#1e3a5f" stroke-width="1.6" marker-end="url(#arr)"/>
<rect x="952" y="357" width="36" height="16" rx="3" fill="#ffffff" stroke="#e2e8f0" stroke-width="0.8"/>
<text x="970" y="368.5" text-anchor="middle" font-family="Arial" font-size="9" font-weight="bold" fill="#15803d">Đạt</text>
<polygon points="1080,427 1100,447 1080,467 1060,447" fill="#fef08a" stroke="#b45309" stroke-width="2"/>
<text x="1080" y="451" text-anchor="middle" font-family="Arial" font-size="11" font-weight="bold" fill="#b45309">×</text>
<text x="1080" y="421" text-anchor="middle" font-family="Arial" font-size="9" font-weight="bold" fill="#b45309">G5</text>
<text x="1080" y="474.5" text-anchor="middle" font-family="Arial" font-size="8.5" font-weight="bold" fill="#78350f">Cần kiểm định</text>
<text x="1080" y="485.5" text-anchor="middle" font-family="Arial" font-size="8.5" font-weight="bold" fill="#78350f">Viện ngoài?</text>
<path d="M 1010,447 L 1060,447" fill="none" stroke="#1e3a5f" stroke-width="1.6" marker-end="url(#arr)"/>
<rect x="1020" y="806" width="120" height="48" rx="6" fill="#f3e8ff" stroke="#7c3aed" stroke-width="1.8"/>
<text x="1080" y="827.5" text-anchor="middle" font-family="Arial" font-size="9.5" fill="#0f172a">Gửi mẫu sang</text>
<text x="1080" y="840.5" text-anchor="middle" font-family="Arial" font-size="9.5" fill="#0f172a">Viện KN Dược phẩm</text>
<rect x="1160" y="806" width="120" height="48" rx="6" fill="#f3e8ff" stroke="#7c3aed" stroke-width="1.8"/>
<text x="1220" y="827.5" text-anchor="middle" font-family="Arial" font-size="9.5" fill="#0f172a">Phân tích hóa lý</text>
<text x="1220" y="840.5" text-anchor="middle" font-family="Arial" font-size="9.5" fill="#0f172a">&amp; vi sinh chuyên sâu</text>
<path d="M 1080,467 L 1080,806" fill="none" stroke="#64748b" stroke-width="1.6" stroke-dasharray="6,4" marker-end="url(#msg_arr)"/>
<rect x="1082" y="652" width="36" height="16" rx="3" fill="#ffffff" stroke="#e2e8f0" stroke-width="0.8"/>
<text x="1100" y="663.5" text-anchor="middle" font-family="Arial" font-size="9" font-weight="bold" fill="#dc2626">Gửi</text>
<path d="M 1140,830 L 1160,830" fill="none" stroke="#1e3a5f" stroke-width="1.6" marker-end="url(#arr)"/>
<rect x="1160" y="423" width="120" height="48" rx="6" fill="#fef3c7" stroke="#d97706" stroke-width="1.8"/>
<text x="1220" y="444.5" text-anchor="middle" font-family="Arial" font-size="9.5" fill="#0f172a">Kiểm nghiệm hoạt chất</text>
<text x="1220" y="457.5" text-anchor="middle" font-family="Arial" font-size="9.5" fill="#0f172a">bằng test kit nội bộ</text>
<path d="M 1100,447 L 1160,447" fill="none" stroke="#1e3a5f" stroke-width="1.6" marker-end="url(#arr)"/>
<rect x="1112" y="429" width="36" height="16" rx="3" fill="#ffffff" stroke="#e2e8f0" stroke-width="0.8"/>
<text x="1130" y="440.5" text-anchor="middle" font-family="Arial" font-size="9" font-weight="bold" fill="#dc2626">Nội bộ</text>
<path d="M 1220,806 L 1220,471" fill="none" stroke="#64748b" stroke-width="1.6" stroke-dasharray="6,4" marker-end="url(#msg_arr)"/>
<polygon points="1360,427 1380,447 1360,467 1340,447" fill="#fef08a" stroke="#b45309" stroke-width="2"/>
<text x="1360" y="451" text-anchor="middle" font-family="Arial" font-size="11" font-weight="bold" fill="#b45309">×</text>
<text x="1360" y="421" text-anchor="middle" font-family="Arial" font-size="9" font-weight="bold" fill="#b45309">G6</text>
<text x="1360" y="474.5" text-anchor="middle" font-family="Arial" font-size="8.5" font-weight="bold" fill="#78350f">Đạt chuẩn</text>
<text x="1360" y="485.5" text-anchor="middle" font-family="Arial" font-size="8.5" font-weight="bold" fill="#78350f">Dược điển?</text>
<path d="M 1280,447 L 1340,447" fill="none" stroke="#1e3a5f" stroke-width="1.6" marker-end="url(#arr)"/>
<rect x="1300" y="266" width="120" height="48" rx="6" fill="#fee2e2" stroke="#dc2626" stroke-width="1.8"/>
<text x="1360" y="287.5" text-anchor="middle" font-family="Arial" font-size="9.5" fill="#0f172a">Đưa vào kho biệt trữ</text>
<text x="1360" y="300.5" text-anchor="middle" font-family="Arial" font-size="9.5" fill="#0f172a">chờ tiêu hủy</text>
<circle cx="1360" cy="235" r="16" fill="#fecaca" stroke="#dc2626" stroke-width="3.5"/>
<text x="1360" y="263" text-anchor="middle" font-family="Arial" font-size="9" font-weight="bold" fill="#991b1b">Hủy thuốc</text>
<path d="M 1360,427 L 1360,314" fill="none" stroke="#1e3a5f" stroke-width="1.6" marker-end="url(#arr)"/>
<rect x="1362" y="357" width="36" height="16" rx="3" fill="#ffffff" stroke="#e2e8f0" stroke-width="0.8"/>
<text x="1380" y="368.5" text-anchor="middle" font-family="Arial" font-size="9" font-weight="bold" fill="#dc2626">Hỏng</text>
<path d="M 1360,266 L 1360,251" fill="none" stroke="#1e3a5f" stroke-width="1.6" marker-end="url(#arr)"/>
<rect x="1300" y="573" width="120" height="48" rx="6" fill="#dbeafe" stroke="#2563ab" stroke-width="1.8"/>
<text x="1360" y="594.5" text-anchor="middle" font-family="Arial" font-size="9.5" fill="#0f172a">Thẩm tra hồ sơ</text>
<text x="1360" y="607.5" text-anchor="middle" font-family="Arial" font-size="9.5" fill="#0f172a">phê duyệt lô</text>
<path d="M 1360,467 L 1360,573" fill="none" stroke="#1e3a5f" stroke-width="1.6" marker-end="url(#arr)"/>
<rect x="1362" y="512" width="36" height="16" rx="3" fill="#ffffff" stroke="#e2e8f0" stroke-width="0.8"/>
<text x="1380" y="523.5" text-anchor="middle" font-family="Arial" font-size="9" font-weight="bold" fill="#15803d">Đạt</text>
<polygon points="1500,577 1520,597 1500,617 1480,597" fill="#fef08a" stroke="#b45309" stroke-width="2"/>
<text x="1500" y="601" text-anchor="middle" font-family="Arial" font-size="11" font-weight="bold" fill="#b45309">×</text>
<text x="1500" y="571" text-anchor="middle" font-family="Arial" font-size="9" font-weight="bold" fill="#b45309">G7</text>
<text x="1500" y="624.5" text-anchor="middle" font-family="Arial" font-size="8.5" font-weight="bold" fill="#78350f">Cảnh báo</text>
<text x="1500" y="635.5" text-anchor="middle" font-family="Arial" font-size="8.5" font-weight="bold" fill="#78350f">thu hồi Cục?</text>
<path d="M 1420,597 L 1480,597" fill="none" stroke="#1e3a5f" stroke-width="1.6" marker-end="url(#arr)"/>
<rect x="1440" y="806" width="120" height="48" rx="6" fill="#fee2e2" stroke="#dc2626" stroke-width="1.8"/>
<text x="1500" y="827.5" text-anchor="middle" font-family="Arial" font-size="9.5" fill="#0f172a">Tiếp nhận công văn</text>
<text x="1500" y="840.5" text-anchor="middle" font-family="Arial" font-size="9.5" fill="#0f172a">thu hồi khẩn cấp</text>
<circle cx="1500" cy="885" r="16" fill="#fecaca" stroke="#dc2626" stroke-width="3.5"/>
<text x="1500" y="913" text-anchor="middle" font-family="Arial" font-size="9" font-weight="bold" fill="#991b1b">Thu hồi khẩn</text>
<path d="M 1500,617 L 1500,806" fill="none" stroke="#64748b" stroke-width="1.6" stroke-dasharray="6,4" marker-end="url(#msg_arr)"/>
<rect x="1507" y="652" width="36" height="16" rx="3" fill="#ffffff" stroke="#e2e8f0" stroke-width="0.8"/>
<text x="1525" y="663.5" text-anchor="middle" font-family="Arial" font-size="9" font-weight="bold" fill="#dc2626">Thu hồi</text>
<path d="M 1500,854 L 1500,869" fill="none" stroke="#1e3a5f" stroke-width="1.6" marker-end="url(#arr)"/>
<rect x="1570" y="573" width="120" height="48" rx="6" fill="#dbeafe" stroke="#2563ab" stroke-width="1.8"/>
<text x="1630" y="594.5" text-anchor="middle" font-family="Arial" font-size="9.5" fill="#0f172a">Đối chiếu điều kiện</text>
<text x="1630" y="607.5" text-anchor="middle" font-family="Arial" font-size="9.5" fill="#0f172a">hạn dùng lưu hành</text>
<path d="M 1520,597 L 1570,597" fill="none" stroke="#1e3a5f" stroke-width="1.6" marker-end="url(#arr)"/>
<rect x="1527" y="579" width="36" height="16" rx="3" fill="#ffffff" stroke="#e2e8f0" stroke-width="0.8"/>
<text x="1545" y="590.5" text-anchor="middle" font-family="Arial" font-size="9" font-weight="bold" fill="#dc2626">An toàn</text>
<polygon points="1760,577 1780,597 1760,617 1740,597" fill="#fef08a" stroke="#b45309" stroke-width="2"/>
<text x="1760" y="601" text-anchor="middle" font-family="Arial" font-size="11" font-weight="bold" fill="#b45309">×</text>
<text x="1760" y="571" text-anchor="middle" font-family="Arial" font-size="9" font-weight="bold" fill="#b45309">G8</text>
<text x="1760" y="624.5" text-anchor="middle" font-family="Arial" font-size="8.5" font-weight="bold" fill="#78350f">Hạn dùng</text>
<text x="1760" y="635.5" text-anchor="middle" font-family="Arial" font-size="8.5" font-weight="bold" fill="#78350f">&gt; 18 tháng?</text>
<path d="M 1690,597 L 1740,597" fill="none" stroke="#1e3a5f" stroke-width="1.6" marker-end="url(#arr)"/>
<rect x="1700" y="266" width="120" height="48" rx="6" fill="#fef3c7" stroke="#d97706" stroke-width="1.8"/>
<text x="1760" y="287.5" text-anchor="middle" font-family="Arial" font-size="9.5" fill="#0f172a">Dán nhãn vàng cận hạn</text>
<text x="1760" y="300.5" text-anchor="middle" font-family="Arial" font-size="9.5" fill="#0f172a">&amp; trả nhà cung cấp</text>
<circle cx="1760" cy="235" r="16" fill="#fecaca" stroke="#dc2626" stroke-width="3.5"/>
<text x="1760" y="263" text-anchor="middle" font-family="Arial" font-size="9" font-weight="bold" fill="#991b1b">Trả cận hạn</text>
<path d="M 1760,577 L 1760,314" fill="none" stroke="#1e3a5f" stroke-width="1.6" marker-end="url(#arr)"/>
<rect x="1767" y="432" width="36" height="16" rx="3" fill="#ffffff" stroke="#e2e8f0" stroke-width="0.8"/>
<text x="1785" y="443.5" text-anchor="middle" font-family="Arial" font-size="9" font-weight="bold" fill="#dc2626">Ngắn</text>
<path d="M 1760,266 L 1760,251" fill="none" stroke="#1e3a5f" stroke-width="1.6" marker-end="url(#arr)"/>
<rect x="1860" y="573" width="120" height="48" rx="6" fill="#dcfce7" stroke="#16a34a" stroke-width="1.8"/>
<text x="1920" y="594.5" text-anchor="middle" font-family="Arial" font-size="9.5" fill="#0f172a">Cấp chứng nhận GPP</text>
<text x="1920" y="607.5" text-anchor="middle" font-family="Arial" font-size="9.5" fill="#0f172a">&amp; phê duyệt mở bán</text>
<path d="M 1780,597 L 1860,597" fill="none" stroke="#1e3a5f" stroke-width="1.6" marker-end="url(#arr)"/>
<rect x="1802" y="579" width="36" height="16" rx="3" fill="#ffffff" stroke="#e2e8f0" stroke-width="0.8"/>
<text x="1820" y="590.5" text-anchor="middle" font-family="Arial" font-size="9" font-weight="bold" fill="#dc2626">Đủ date</text>
<rect x="1860" y="266" width="120" height="48" rx="6" fill="#dcfce7" stroke="#16a34a" stroke-width="1.8"/>
<text x="1920" y="287.5" text-anchor="middle" font-family="Arial" font-size="9.5" fill="#0f172a">Dán tem kiểm định</text>
<text x="1920" y="300.5" text-anchor="middle" font-family="Arial" font-size="9.5" fill="#0f172a">&amp; phát hành vào kho</text>
<circle cx="2060" cy="290" r="16" fill="#fecaca" stroke="#dc2626" stroke-width="3.5"/>
<text x="2060" y="318" text-anchor="middle" font-family="Arial" font-size="9" font-weight="bold" fill="#991b1b">Đạt chuẩn GPP</text>
<path d="M 1920,573 L 1920,314" fill="none" stroke="#1e3a5f" stroke-width="1.6" marker-end="url(#arr)"/>
<path d="M 1980,290 L 2044,290" fill="none" stroke="#1e3a5f" stroke-width="1.6" marker-end="url(#arr)"/>
</svg>